<svg width="131" height="125" viewBox="0 0 131 125" fill="none" xmlns="http://www.w3.org/2000/svg">
<path d="M106.153 3.31303C106.988 3.687 107.409 4.60924 107.262 5.51238C105.207 18.1122 113.386 26.7266 124.408 24.4061C125.341 24.2098 126.327 24.6043 126.747 25.4597C129.361 30.7844 130.288 35.2368 130.827 41.4717C132.146 57.0405 125.79 72.8256 116.445 84.8265C107.127 96.8275 94.8188 105.098 81.7569 108.828C68.668 112.586 54.825 111.829 44.2407 106.18C33.6296 100.558 26.2502 90.0432 17.2819 78.5017C8.28668 66.9602 -2.32448 54.3646 0.449508 45.1206C3.22349 35.8767 19.3826 29.9843 31.7713 23.3892C44.133 16.7941 52.7512 9.52321 65.3823 4.68498C77.5586 0.0209211 93.4892 -2.35738 106.153 3.31303Z" fill="#BBE2E4"/>
<path d="M69.1087 72.7384C64.1417 79.3087 52.3597 78.2662 52.3597 78.2662L48.8287 77.7461L33.8499 78.7462L23.6711 75.0611C17.9814 66.4906 16.609 64.8716 22.6306 60.7535C23.4074 60.2216 24.0265 59.245 24.5444 57.9578C28.0496 49.2838 26.9926 26.4646 38.5768 30.2533C42.1079 25.1538 55.9661 25.0762 56.8489 35.8046C57.7316 46.5329 67.4256 47.8648 65.2622 55.454C65.1365 55.8917 65.0506 56.3398 65.0056 56.793C64.3771 63.4385 73.7744 66.5706 69.1087 72.7384Z" fill="#4D4D4D"/>
<path d="M69.1087 72.7384C64.1417 79.3086 52.3597 78.2661 52.3597 78.2661L48.8287 77.7461L33.8499 78.7462L23.6711 75.0611C17.9814 66.4906 16.609 64.8716 22.6306 60.7534C23.4074 60.2216 24.0265 59.245 24.5444 57.9578C29.8857 55.4657 31.2534 47.5471 34.7986 48.5825C39.0359 49.8227 48.904 53.4231 54.0334 50.8628C58.3507 48.7073 60.5094 56.7694 65.0056 56.793C64.3771 63.4385 73.7744 66.5706 69.1087 72.7384Z" fill="#333333"/>
<path d="M48.6681 68.2342C48.461 70.2462 47.6865 71.6134 45.4666 71.7428C39.8852 72.0699 39.2096 61.7204 39.1861 61.358C39.1861 61.358 39.2332 60.205 39.2379 58.7177C39.2379 57.0116 39.2025 54.8655 38.9766 53.5171L48.8329 56.3716C48.608 57.4295 48.4874 58.5069 48.4727 59.5884C48.3904 62.7159 48.9082 65.9068 48.6681 68.2342Z" fill="#FCA897"/>
<path d="M48.8329 56.3623C48.608 57.4202 48.4874 58.4977 48.4727 59.5791C45.2736 60.6405 41.4813 61.1982 39.2379 58.7085C39.2379 57.0024 39.2025 54.8562 38.9766 53.5078L48.8329 56.3623Z" fill="#EF9181"/>
<path d="M54.208 45.2458C54.6176 43.5726 55.7899 43.935 55.9193 45.6435C56.0488 47.3519 54.9142 51.503 53.0098 49.0251" fill="#FCA897"/>
<path d="M54.3716 45.9987C53.9997 50.3757 52.7779 55.1316 50.1885 57.3719C49.4563 58.0281 48.551 58.4602 47.5802 58.6167C43.2535 59.2921 37.7474 55.1881 36.0454 50.9546C36.0078 50.8652 35.9748 50.7734 35.9419 50.684C34.7648 51.8277 31.8859 51.3453 31.4692 47.6813C31.0525 44.0173 33.755 44.3162 34.4447 45.3681C34.9555 47.0812 35.9772 49.6039 36.2479 48.8979C36.4409 48.392 36.2667 46.6035 36.1608 45.4175C36.1226 45.0807 36.1014 44.7422 36.0972 44.4032C36.1278 43.8338 47.246 46.027 51.2737 36.3223C51.382 38.6284 52.2341 40.5204 53.0157 42.1324C53.7384 43.6314 54.4046 44.8857 54.3716 45.9987Z" fill="#FCC3B4"/>
<path d="M33.1572 47.9329V47.9093C33.1484 47.7981 33.1679 47.6864 33.2137 47.5846L33.2325 47.5611C33.2725 47.5687 33.3098 47.5865 33.3408 47.6128C33.4739 47.7233 33.5801 47.8625 33.6516 48.0199C33.77 48.2658 33.8495 48.5286 33.887 48.7989C33.9046 48.8968 33.914 48.9959 33.9152 49.0954C33.9188 49.1384 33.9188 49.1817 33.9152 49.2248L33.8917 49.2648L33.9388 49.2978L33.9152 49.2483L33.8917 49.2648L33.9388 49.2978L33.9152 49.2483L33.9435 49.3072L33.9293 49.2436H33.9152L33.9435 49.3025L33.9293 49.2389V49.2625V49.2366V49.2601V49.2342C33.8907 49.2291 33.8537 49.2154 33.8211 49.1942C33.7219 49.1374 33.6295 49.0695 33.5456 48.9918L33.4468 48.9001L33.4209 48.8742C33.3778 48.8289 33.3185 48.8026 33.256 48.8011C33.1936 48.7995 33.133 48.8229 33.0878 48.8659C33.0425 48.909 33.0162 48.9683 33.0147 49.0307C33.0131 49.0932 33.0365 49.1537 33.0795 49.1989C33.1643 49.2825 33.2539 49.3611 33.3479 49.4342C33.4285 49.5011 33.5151 49.5602 33.6068 49.6107C33.7078 49.6699 33.8218 49.703 33.9388 49.7072C34.0057 49.7077 34.0719 49.6924 34.1318 49.6625C34.2268 49.612 34.2997 49.5282 34.3366 49.4272C34.3743 49.3216 34.3919 49.2098 34.3884 49.0977C34.3876 48.9739 34.3766 48.8503 34.3554 48.7283C34.3001 48.3194 34.1563 47.9275 33.934 47.5799C33.8497 47.4493 33.7438 47.334 33.621 47.2387C33.5095 47.1498 33.3726 47.0987 33.2302 47.0928C33.1428 47.0929 33.0573 47.1174 32.983 47.1634C32.872 47.2366 32.789 47.3452 32.7476 47.4716C32.7016 47.6137 32.6801 47.7625 32.6841 47.9117V47.9423C32.6841 48.0047 32.7089 48.0646 32.753 48.1087C32.7972 48.1528 32.857 48.1776 32.9195 48.1776C32.9819 48.1776 33.0418 48.1528 33.0859 48.1087C33.1301 48.0646 33.1549 48.0047 33.1549 47.9423L33.1572 47.9329Z" fill="#E56E61"/>
<path d="M41.5042 47.6835C41.5042 48.2035 41.21 48.6248 40.8451 48.6248C40.4802 48.6248 40.1836 48.2035 40.1836 47.6835C40.1836 47.1634 40.4778 46.7422 40.8451 46.7422C41.2123 46.7422 41.5042 47.1634 41.5042 47.6835Z" fill="#3F3B51"/>
<path d="M50.5658 48.3894C50.9311 48.3894 51.2273 47.968 51.2273 47.4481C51.2273 46.9283 50.9311 46.5068 50.5658 46.5068C50.2005 46.5068 49.9043 46.9283 49.9043 47.4481C49.9043 47.968 50.2005 48.3894 50.5658 48.3894Z" fill="#3F3B51"/>
<path d="M46.4336 48.3683C46.4336 48.4271 46.4336 48.4859 46.4336 48.5424C46.46 49.072 46.5979 49.59 46.8385 50.0626C46.9373 50.2791 47.0315 50.4768 47.0974 50.6486C47.1566 50.7802 47.1924 50.9211 47.2033 51.0651C47.2059 51.0885 47.2059 51.1122 47.2033 51.1357C47.1782 51.2369 47.1171 51.3255 47.0315 51.3851C46.8514 51.5108 46.6494 51.6018 46.4359 51.6534C46.3347 51.6816 46.2452 51.7004 46.1817 51.7122H46.1064H46.0828C46.0519 51.7161 46.022 51.726 45.995 51.7414C45.9679 51.7568 45.9441 51.7774 45.925 51.8019C45.9058 51.8265 45.8918 51.8546 45.8835 51.8847C45.8752 51.9147 45.873 51.946 45.8768 51.977C45.8807 52.0079 45.8906 52.0377 45.906 52.0648C45.9214 52.0918 45.942 52.1156 45.9666 52.1347C45.9912 52.1539 46.0193 52.1679 46.0493 52.1762C46.0794 52.1845 46.1107 52.1867 46.1417 52.1829C46.3696 52.1498 46.5936 52.0938 46.8102 52.0158C46.9948 51.9517 47.168 51.8588 47.3234 51.7405C47.4976 51.6122 47.619 51.4248 47.6647 51.2133C47.6759 51.1607 47.6814 51.1071 47.6812 51.0533C47.6712 50.8506 47.625 50.6514 47.5447 50.465C47.4293 50.1709 47.2669 49.8626 47.1374 49.5378C46.9959 49.22 46.916 48.8783 46.902 48.5307C46.902 48.4859 46.902 48.4389 46.902 48.3918C46.9067 48.3294 46.8864 48.2677 46.8456 48.2203C46.8047 48.1728 46.7467 48.1435 46.6843 48.1388C46.6218 48.1342 46.5601 48.1545 46.5126 48.1953C46.4652 48.2361 46.4359 48.2941 46.4312 48.3565L46.4336 48.3683Z" fill="#E56E61"/>
<path d="M44.2616 53.8983C44.7936 54.2834 45.4339 54.4902 46.0907 54.489C46.4211 54.4953 46.7492 54.4319 47.0535 54.3031C47.3342 54.1894 47.5642 53.9779 47.7008 53.7077C47.7138 53.6796 47.7211 53.6492 47.7224 53.6183C47.7236 53.5873 47.7187 53.5564 47.708 53.5274C47.6973 53.4983 47.681 53.4716 47.6599 53.4489C47.6389 53.4261 47.6136 53.4077 47.5855 53.3948C47.5574 53.3818 47.527 53.3745 47.496 53.3732C47.465 53.372 47.4341 53.3769 47.4051 53.3876C47.376 53.3983 47.3493 53.4146 47.3266 53.4356C47.3038 53.4567 47.2854 53.4819 47.2724 53.5101C47.1845 53.6775 47.0378 53.8065 46.8605 53.8725C46.6173 53.9755 46.3548 54.0253 46.0907 54.0184C45.5347 54.0195 44.9925 53.8449 44.5417 53.5195C44.4915 53.4823 44.4285 53.4667 44.3667 53.476C44.3049 53.4852 44.2493 53.5187 44.2122 53.5689C44.175 53.6191 44.1594 53.6821 44.1686 53.7439C44.1779 53.8056 44.2113 53.8612 44.2616 53.8983Z" fill="#FC4F88"/>
<path d="M48.6676 68.234C48.4604 70.246 47.686 71.6133 45.4661 71.7427C39.8847 72.0698 39.2091 61.7203 39.1855 61.3579C40.3626 66.4832 42.0104 69.0977 45.0706 69.6695C46.9162 70.0131 47.9849 69.3871 48.6676 68.234Z" fill="#F26B98"/>
<path d="M25.7918 76.0256C26.8464 70.279 32.8162 63.6194 32.8162 63.6194C38.1481 65.1984 42.0582 64.796 44.7206 64.09C47.3218 63.3841 48.673 62.3957 51.3613 62.2663C54.9489 62.0945 57.9691 63.6123 60.0218 64.9913C60.0218 64.9913 63.1668 96.9058 63.3481 101.746C63.4448 104.331 51.7219 105.502 43 105.5C40.5 104 32.5 98.5001 24 87.0001C24.4429 82.8135 25.3727 78.3092 25.7918 76.0256Z" fill="#35324B"/>
<path d="M64.0592 71.5074C62.4114 68.6012 60.9048 65.9962 59.9961 64.4478C59.7113 63.9641 59.3299 63.5444 58.8756 63.2147C58.3726 62.9445 57.852 62.7087 57.3172 62.5087C51.9877 60.492 49.403 63.6571 43.3084 63.3982C37.8494 63.1629 35.6107 60.4402 31.4864 62.1604C30.42 62.6052 29.5632 63.057 29.1324 63.6006C26.3956 65.9998 21.8408 73.3559 18.5 80.1802L20.5 82.5001L22.5 85.0001L23 85.5001C23 85.5001 26.3216 80.4756 29.3772 75.2279C28.2002 85.9986 28 90.5001 28 90.5001C28.0514 91.8902 28.3477 92.8253 31.9531 96.2845H59.2428C59.2428 96.2845 59.2946 88.3706 58.3224 78.04C58.6624 79.0689 59.0941 80.0652 59.6124 81.0168" fill="#F0F0F0"/>
<path d="M63.9841 71.8503C67.6359 81.584 71.5183 97.5881 69.0248 97.0856C63.0915 95.8924 62.0987 94.3511 62.0987 94.3511C62.0987 94.3511 62.1197 89.816 61.2417 87.3482C60.9092 86.413 58.6115 81.3418 57.3502 76.1271C60.3488 75.8843 62.959 73.0073 63.9841 71.8503Z" fill="#FCC3B4"/>
<path d="M32 96.2964H59.2427L63.0821 111C63.0821 111 58.2576 112.619 45 106.5C38.5 103.5 32 96.2964 32 96.2964Z" fill="#8DBEE4"/>
<path d="M58.7224 90.2771C56.8745 89.0746 53.6989 76.2377 53.0727 74.2328C51.7545 69.997 51.2178 64.7893 51.2601 60.3723C52.8797 59.7675 54.6735 60.2405 56.2954 60.8218C57.9879 66.7048 61.0953 83.4527 60.8811 89.5452C60.2669 90.0296 59.5046 90.288 58.7224 90.2771Z" fill="#5D5A77"/>
<path d="M52.6875 74.1032L50.477 72.263L34.7921 70.3286L30.9785 91.0605L47.3862 92.9431L52.6875 74.1032Z" fill="#00B398"/>
<path d="M51.9272 74.4679C51.9272 74.4679 50.6348 72.9853 50.4795 72.9853C50.3241 72.9853 35.3289 71.0039 35.3289 71.0039L31.7578 90.6581L33.6858 92.0935L48.6951 93.0348L51.9272 74.4679Z" fill="white"/>
<path d="M33.002 92.3946L49.5461 94.6019L52.6935 74.0912L36.1493 71.8862L33.002 92.3946Z" fill="#00B398"/>
<path d="M55.8808 77.3952L53.6633 75.5597L37.9807 73.6206L34.1719 94.3549L50.5748 96.2375L55.8808 77.3952Z" fill="#F05D5C"/>
<path d="M55.1084 77.7599C55.1084 77.7599 53.8184 76.2774 53.663 76.2774C53.5077 76.2774 38.5125 74.2983 38.5125 74.2983L34.9414 93.9548L36.8741 95.395L51.8763 96.3363L55.1084 77.7599Z" fill="white"/>
<path d="M36.1934 95.689L52.7375 97.8964L55.8849 77.3856L39.3407 75.1807L36.1934 95.689Z" fill="#F05D5C"/>
<path d="M21.6147 74.1001C22.4284 75.3682 24.6297 78.3836 27.4381 79.0585C26.3557 81.8935 24.7416 85.015 24 87.0001L18.5 80.0001C19.4854 77.9963 20.6281 75.9883 21.6147 74.1001Z" fill="#FCC3B4"/>
<path d="M27.5007 90.0004C29.351 88.7979 32.1274 76.2377 32.7512 74.2328C34.0742 69.997 34.6109 64.7893 34.5638 60.3723C32.9513 59.7675 31.1552 60.2405 29.5285 60.8218C27.8242 66.726 24.7889 81.9079 25.0008 88.0004C25.0008 88.0004 26.7192 90.0112 27.5007 90.0004Z" fill="#5D5A77"/>
<path d="M45.658 86.2873L47.9911 89.3606C47.9911 89.3606 37.0681 91.3662 29.5 93.5C28.5864 92.7707 27.3525 91.3164 25 88.5C32.988 87.3041 45.658 86.2873 45.658 86.2873Z" fill="#FCC3B4"/>
<path d="M45.7272 74.3253C45.7272 74.3253 67.8522 87.9486 67.546 90.2429C66.9395 94.6981 65.5125 95.9163 62.6811 94.961C59.8498 94.0057 42.0988 75.9225 42.0988 75.9225L45.7272 74.3253Z" fill="#FCC3B4"/>
<path d="M43.5403 86.1888C43.5403 86.1888 46.7357 85.2902 47.5867 85.2634C48.4377 85.2367 48.2546 86.1127 48.2546 86.1127C48.2546 86.1127 50.6122 85.3721 51.3703 86.5409C52.3745 88.0978 50.5006 91.676 44.7876 90.3991L43.5403 86.1888Z" fill="#FCC3B4"/>
<path d="M47.3528 74.9724C47.3528 74.9724 44.8596 72.8063 44.1214 72.4423C43.3831 72.0782 43.1169 72.9198 43.1169 72.9198C43.1169 72.9198 41.326 71.2618 40.1013 71.9805C38.4649 72.9393 38.5129 76.8955 44.2669 78.2019L47.3528 74.9724Z" fill="#FCC3B4"/>
<path d="M39.5907 60.8096C39.5907 60.8096 41.1255 63.1134 43.8279 63.5746C43.8279 63.5746 41.5704 66.7044 40.3934 67.3398C39.2164 67.9751 37.5944 63.2899 37.7757 62.1839C37.9569 61.0778 39.5907 60.8096 39.5907 60.8096Z" fill="#DADADA"/>
<path d="M48.0849 60.8096C48.0849 60.8096 46.5501 63.1134 43.8477 63.5746C43.8477 63.5746 46.1075 66.7044 47.2822 67.3398C48.4569 67.9751 50.0835 63.2899 49.9022 62.1839C49.721 61.0778 48.0849 60.8096 48.0849 60.8096Z" fill="#DADADA"/>
<path d="M39.6731 45.2481C39.7919 45.1582 39.9188 45.0794 40.0521 45.0127C40.3095 44.8771 40.5945 44.8022 40.8854 44.7939C41.0751 44.7949 41.2625 44.8351 41.4359 44.9121C41.6093 44.989 41.7649 45.101 41.8929 45.241C41.937 45.2848 41.9967 45.3094 42.0589 45.3094C42.1211 45.3094 42.1807 45.2848 42.2248 45.241C42.2469 45.2191 42.2644 45.1931 42.2764 45.1644C42.2883 45.1357 42.2945 45.105 42.2945 45.0739C42.2945 45.0429 42.2883 45.0121 42.2764 44.9834C42.2644 44.9547 42.2469 44.9287 42.2248 44.9068C42.0526 44.7242 41.8451 44.5783 41.6148 44.478C41.3846 44.3777 41.1365 44.3251 40.8854 44.3232C40.5098 44.3301 40.1415 44.4278 39.8119 44.608C39.6549 44.6881 39.5066 44.7843 39.3694 44.8951C39.343 44.9141 39.3209 44.9383 39.3043 44.9662C39.2878 44.9942 39.2772 45.0253 39.2732 45.0575C39.2693 45.0898 39.2721 45.1225 39.2814 45.1536C39.2907 45.1847 39.3064 45.2136 39.3274 45.2384C39.3484 45.2631 39.3744 45.2833 39.4036 45.2975C39.4328 45.3118 39.4646 45.3198 39.4971 45.3212C39.5295 45.3226 39.5619 45.3172 39.5922 45.3054C39.6225 45.2936 39.65 45.2757 39.6731 45.2528V45.2481Z" fill="#3F3B51"/>
<path d="M49.194 44.7798C49.3129 44.6899 49.4398 44.6112 49.573 44.5445C49.8304 44.4088 50.1155 44.334 50.4064 44.3256C50.5961 44.3266 50.7835 44.3669 50.9569 44.4438C51.1303 44.5208 51.2859 44.6328 51.4139 44.7727C51.4582 44.8171 51.5183 44.8419 51.581 44.8419C51.6437 44.8419 51.7038 44.8171 51.7481 44.7727C51.7925 44.7284 51.8174 44.6683 51.8174 44.6057C51.8174 44.543 51.7925 44.4829 51.7481 44.4386C51.5756 44.2557 51.3677 44.1096 51.1371 44.0093C50.9064 43.909 50.6579 43.8565 50.4064 43.855C50.0308 43.8618 49.6625 43.9595 49.3329 44.1397C49.1759 44.2198 49.0275 44.3161 48.8904 44.4268C48.8426 44.4671 48.8128 44.5246 48.8075 44.5869C48.8022 44.6491 48.8218 44.7109 48.8621 44.7586C48.9024 44.8064 48.96 44.8362 49.0222 44.8415C49.0845 44.8468 49.1463 44.8271 49.194 44.7869V44.7798Z" fill="#3F3B51"/>
<path d="M110.935 47.98C108.148 51.3828 103.214 56.7717 100.857 54.2914L87.997 45.4032C86.1844 43.4736 83.8257 39.2848 82.8441 34.9973C81.886 30.8062 82.2414 26.5256 85.7019 24.1559C92.0719 19.8025 96.4928 24.6101 97.2366 25.5138C96.7117 24.8478 94.6001 22.0333 95.417 21.1556C96.3468 20.1531 98.0629 24.2995 102.924 25.7279C106.041 26.6457 109.009 28.62 110.537 31.611C111.466 33.4578 111.814 35.5421 111.537 37.5905C114.08 39.0213 113.722 44.5772 110.935 47.98Z" fill="#4D4D4D"/>
<path d="M110.934 47.9799C108.147 51.3827 103.213 56.7715 100.857 54.2912L87.9967 45.4031C86.1841 43.4735 83.8254 39.2847 82.8438 34.9971C86.8056 35.0936 90.6121 32.7733 91.7043 33.3993C92.992 34.1429 100.65 37.6022 103.875 37.9622C107.1 38.3222 107.521 35.8043 108.004 36.8232C108.38 37.6163 110.77 35.3219 110.541 31.6108C111.47 33.4577 111.819 35.542 111.542 37.5904C114.079 39.0212 113.722 44.5771 110.934 47.9799Z" fill="#333333"/>
<path d="M87.9962 44.4029C86.9205 43.4616 86.0636 45.1866 86.8616 47.6739C87.6596 50.1613 88.9167 48.7188 88.5965 47.0456L87.9962 44.4029Z" fill="#FCA897"/>
<path d="M102.706 60.3417C102.727 60.8123 102.744 61.1582 102.751 61.3677C102.805 62.709 100.232 66.0318 97.6049 66.0318C94.9778 66.0318 93.9044 63.5656 93.3677 62.1184C93.2581 61.7844 93.2063 61.4343 93.2146 61.0829C93.1982 60.337 93.3088 59.4098 93.3253 58.3391C93.3729 56.9167 93.1689 55.4971 92.7227 54.1456L102.748 51.0864C102.541 51.863 102.513 53.9832 102.563 56.1153C102.595 57.6943 102.659 59.2874 102.706 60.3417Z" fill="#FCA897"/>
<path d="M102.564 56.1059C98.9722 60.6382 96.0108 60.3417 93.3272 58.3391C93.3748 56.9167 93.1709 55.4971 92.7246 54.1456L102.75 51.0864C102.543 51.8536 102.524 53.9715 102.564 56.1059Z" fill="#EF9181"/>
<path d="M106.019 48.6131C105.359 50.5624 104.17 52.2897 102.584 53.602C101.658 54.3861 100.619 55.027 99.5029 55.5034C97.0806 56.5365 94.5594 56.6353 92.8857 55.5481C90.5693 54.042 89.277 51.637 88.5684 48.7567C88.1766 47.0721 87.9347 45.3562 87.8457 43.629C87.8457 43.629 88.5731 42.2171 89.4935 40.0639C90.155 38.5155 90.906 36.5764 91.591 34.4844C95.0208 40.9887 105.692 42.6924 105.692 42.6924C105.692 42.6924 105.456 46.3093 105.718 46.2811C105.979 46.2529 107.191 43.869 107.191 43.869C107.191 43.869 109.284 43.469 109.818 45.3186C110.353 47.1683 108.324 49.9004 106.019 48.6131Z" fill="#FCC3B4"/>
<path d="M95.5889 45.5517C95.6118 45.672 95.6237 45.7941 95.6242 45.9165C95.6042 46.3376 95.4934 46.7494 95.2993 47.1237C95.2122 47.3119 95.1251 47.4955 95.0639 47.6837C94.9879 47.8692 94.9465 48.067 94.9415 48.2673C94.9395 48.4094 94.9668 48.5504 95.0216 48.6815C95.101 48.8723 95.2235 49.0422 95.3794 49.178C95.5738 49.3427 95.8046 49.4588 96.0526 49.5169C96.2184 49.5569 96.3882 49.5774 96.5587 49.5781C96.5893 49.581 96.62 49.581 96.6505 49.5781C96.713 49.5734 96.771 49.5441 96.8118 49.4967C96.8527 49.4492 96.873 49.3875 96.8683 49.3251C96.8636 49.2627 96.8343 49.2047 96.7869 49.1639C96.7394 49.1231 96.6777 49.1028 96.6152 49.1074V49.1875V49.1074V49.1875V49.1074H96.5587C96.3682 49.107 96.1793 49.0727 96.0008 49.0063C95.8869 48.9646 95.7816 48.9023 95.6901 48.8227C95.5865 48.7351 95.5057 48.6237 95.4547 48.498C95.4228 48.4237 95.4075 48.3434 95.41 48.2626C95.4151 48.1186 95.4462 47.9767 95.5018 47.8438C95.5912 47.6084 95.7372 47.3261 95.8667 47.0084C96.0152 46.6615 96.0951 46.2891 96.1021 45.9118C96.1019 45.7601 96.0869 45.6087 96.0573 45.4599C96.0516 45.429 96.0399 45.3996 96.0228 45.3732C96.0056 45.3468 95.9835 45.3241 95.9576 45.3063C95.9317 45.2885 95.9025 45.276 95.8718 45.2694C95.841 45.2629 95.8093 45.2624 95.7784 45.2682C95.7475 45.2739 95.718 45.2856 95.6916 45.3027C95.6652 45.3198 95.6425 45.342 95.6247 45.3679C95.6069 45.3938 95.5943 45.4229 95.5878 45.4536C95.5812 45.4844 95.5808 45.5161 95.5865 45.547L95.5889 45.5517Z" fill="#E56E61"/>
<path d="M101.766 45.2927C101.766 45.8646 101.446 46.3282 101.06 46.3282C100.674 46.3282 100.354 45.8575 100.354 45.2927C100.354 44.728 100.674 44.2573 101.06 44.2573C101.446 44.2573 101.766 44.7209 101.766 45.2927Z" fill="#3F3B51"/>
<path d="M91.9573 45.0574C91.9573 45.6292 91.6372 46.0928 91.2511 46.0928C90.8651 46.0928 90.5449 45.6222 90.5449 45.0574C90.5449 44.4926 90.8651 44.022 91.2511 44.022C91.6372 44.022 91.9573 44.4856 91.9573 45.0574Z" fill="#3F3B51"/>
<path d="M90.177 42.4854C90.2958 42.3955 90.4227 42.3167 90.5559 42.25C90.8131 42.1137 91.0983 42.0388 91.3893 42.0312C91.579 42.0322 91.7664 42.0724 91.9398 42.1494C92.1132 42.2263 92.2688 42.3383 92.3968 42.4783C92.4188 42.5002 92.4448 42.5177 92.4735 42.5295C92.5021 42.5414 92.5329 42.5475 92.5639 42.5475C92.595 42.5475 92.6257 42.5414 92.6544 42.5295C92.6831 42.5177 92.7091 42.5002 92.7311 42.4783C92.753 42.4564 92.7704 42.4303 92.7823 42.4016C92.7942 42.373 92.8003 42.3423 92.8003 42.3112C92.8003 42.2802 92.7942 42.2495 92.7823 42.2208C92.7704 42.1921 92.753 42.1661 92.7311 42.1441C92.5583 41.9614 92.3504 41.8155 92.1199 41.7153C91.8893 41.615 91.6407 41.5623 91.3893 41.5605C91.0137 41.5674 90.6454 41.6651 90.3158 41.8453C90.1582 41.9244 90.0098 42.0207 89.8733 42.1324C89.8469 42.1514 89.8247 42.1756 89.8082 42.2035C89.7916 42.2315 89.7811 42.2626 89.7771 42.2948C89.7732 42.3271 89.776 42.3598 89.7853 42.3909C89.7946 42.422 89.8103 42.4509 89.8313 42.4757C89.8524 42.5004 89.8783 42.5206 89.9075 42.5348C89.9367 42.5491 89.9685 42.5571 90.001 42.5585C90.0334 42.5599 90.0658 42.5545 90.0961 42.5427C90.1264 42.5309 90.1539 42.513 90.177 42.4901V42.4854Z" fill="#3F3B51"/>
<path d="M99.9348 42.7207C100.053 42.6306 100.179 42.5518 100.311 42.4854C100.569 42.3491 100.854 42.2741 101.145 42.2665C101.334 42.2674 101.522 42.3076 101.695 42.3845C101.869 42.4615 102.024 42.5736 102.152 42.7137C102.174 42.7356 102.2 42.753 102.229 42.7649C102.258 42.7768 102.288 42.7829 102.319 42.7829C102.35 42.7829 102.381 42.7768 102.41 42.7649C102.439 42.753 102.465 42.7356 102.487 42.7137C102.508 42.6917 102.526 42.6657 102.538 42.637C102.55 42.6083 102.556 42.5776 102.556 42.5466C102.556 42.5156 102.55 42.4848 102.538 42.4562C102.526 42.4275 102.508 42.4014 102.487 42.3795C102.314 42.1966 102.106 42.0505 101.875 41.9502C101.645 41.8499 101.396 41.7974 101.145 41.7959C100.77 41.8028 100.402 41.9005 100.074 42.0806C99.916 42.1598 99.7676 42.256 99.6311 42.3677C99.6047 42.3867 99.5826 42.4109 99.566 42.4389C99.5495 42.4669 99.5389 42.4979 99.5349 42.5302C99.531 42.5624 99.5338 42.5951 99.5431 42.6263C99.5524 42.6574 99.5681 42.6862 99.5891 42.711C99.6101 42.7358 99.6361 42.7559 99.6653 42.7702C99.6945 42.7844 99.7263 42.7925 99.7588 42.7939C99.7913 42.7952 99.8237 42.7898 99.8539 42.7781C99.8842 42.7663 99.9118 42.7484 99.9348 42.7254V42.7207Z" fill="#3F3B51"/>
<path d="M108.515 45.1186C108.426 45.0334 108.308 44.9861 108.185 44.9868C108.087 44.9877 107.99 45.0136 107.905 45.0621C107.756 45.1471 107.625 45.2598 107.519 45.3939C107.336 45.6192 107.186 45.8686 107.072 46.1352C106.954 46.3873 106.888 46.6599 106.876 46.9376C106.866 47.1067 106.917 47.2737 107.02 47.4083C107.076 47.4793 107.147 47.5378 107.227 47.5801C107.301 47.6152 107.381 47.6344 107.462 47.6366C107.597 47.6324 107.729 47.5908 107.841 47.5165C107.98 47.4227 108.103 47.3085 108.206 47.1777C108.293 47.0718 108.348 46.9871 108.352 46.9824C108.369 46.9562 108.38 46.9271 108.385 46.8967C108.391 46.8662 108.39 46.835 108.383 46.8049C108.376 46.7747 108.364 46.7462 108.346 46.7209C108.328 46.6957 108.305 46.6741 108.279 46.6576C108.253 46.6411 108.224 46.6299 108.194 46.6246C108.163 46.6193 108.132 46.6201 108.102 46.6268C108.072 46.6336 108.043 46.6463 108.018 46.664C107.992 46.6818 107.971 46.7044 107.954 46.7306C107.894 46.8143 107.827 46.8931 107.754 46.9659C107.704 47.021 107.646 47.0693 107.582 47.1094C107.548 47.136 107.506 47.1515 107.462 47.1541H107.427C107.405 47.1403 107.385 47.1228 107.368 47.1024C107.342 47.0542 107.33 46.9994 107.335 46.9447C107.343 46.7901 107.374 46.6375 107.429 46.4929C107.523 46.2267 107.657 45.9767 107.827 45.7516C107.895 45.6634 107.974 45.5843 108.063 45.5163C108.096 45.4855 108.138 45.4651 108.183 45.4575C108.205 45.4795 108.231 45.497 108.259 45.509C108.288 45.5209 108.319 45.5271 108.35 45.5271C108.381 45.5271 108.412 45.5209 108.44 45.509C108.469 45.497 108.495 45.4795 108.517 45.4575C108.561 45.4134 108.585 45.3537 108.585 45.2916C108.585 45.2294 108.561 45.1698 108.517 45.1257L108.515 45.1186Z" fill="#E56E61"/>
<path d="M95.1367 51.5805C96.1664 51.551 97.1791 51.3107 98.1122 50.8745C98.1122 50.8745 98.1663 52.0817 97.0929 52.4018C96.0195 52.7218 95.1367 51.5805 95.1367 51.5805Z" fill="white"/>
<path d="M102.75 61.3673C102.804 62.7086 100.231 66.0314 97.604 66.0314C94.9769 66.0314 93.9035 63.5652 93.3668 62.118C93.2572 61.7841 93.2054 61.4339 93.2138 61.0826C95.7137 64.7654 98.1219 66.2079 102.703 60.3413C102.726 60.7955 102.743 61.1579 102.75 61.3673Z" fill="#EF9181"/>
<path d="M80.8988 75.009C81.9535 69.2601 87.9233 62.6028 87.9233 62.6028C90.9579 63.3713 94.1106 63.5582 97.2147 63.1535C101.325 62.5957 102.975 61.2403 106.459 61.2403C109.119 61.2332 112.015 62.0074 115.119 63.97C115.119 63.97 116.065 74.4457 116.999 84.5002C110.499 94.0002 100.499 100.5 93.499 104C89.5169 103.865 85.6389 103.448 85.4422 103.448H85.439C84.7561 103.448 82.1312 103.448 79.849 100.424C77.5632 97.3953 79.8442 80.7579 80.8988 75.009Z" fill="#35324B"/>
<path d="M121.241 69.999L112.84 72.9429L115 87.5002C118.066 83.1343 120.018 80.6375 122 76.5002C121.434 72.281 121.241 69.999 121.241 69.999Z" fill="#FCC3B4"/>
<path d="M106.686 59.2189C110.09 59.0048 112.649 60.0826 113.15 60.1932C113.779 60.3354 114.11 77.1947 114.261 88.5002C110.178 93.1554 107.524 95.2308 102.5 98.5108H82.1172C82.1172 98.5108 83.4378 66.2033 85.9919 62.2358C86.7146 61.1109 90.6623 58.2377 91.8935 59.1154C92.3078 59.4119 92.1595 59.9602 92.5079 60.5603C93.0588 61.5016 94.6666 62.2734 99.0992 61.7369C101.374 60.2682 103.985 59.4018 106.686 59.2189Z" fill="#F0F0F0"/>
<path d="M81.6701 61.5002C81.6701 61.5002 71.0758 83.1759 70.4967 88.0963C69.9176 93.0167 69.6965 94.5153 73.6976 95.3901C78.1019 96.3634 79.632 91.4244 79.8591 88.09C80.2404 82.7324 82.2312 73.9917 82.3246 73.3038C82.4648 72.3006 81.6701 61.5002 81.6701 61.5002Z" fill="#ECB1A0"/>
<path d="M76.3398 71.7967L84.0023 80.7249L91.3869 59.2964C91.3869 59.2964 83.1807 59.2964 81.401 61.9767C79.9345 64.2076 77.0672 67.8551 76.3398 71.7967Z" fill="#F0F0F0"/>
<path d="M82.2059 89.2366C84.0585 88.0341 87.2341 75.1973 87.8555 73.1924C89.1762 68.9565 89.7105 63.7512 89.6681 59.3342C88.0533 58.7294 86.2548 59.2024 84.6305 59.7837C82.945 65.6667 79.8377 82.4146 80.0472 88.5072C80.6606 88.9927 81.4235 89.2505 82.2059 89.2366Z" fill="#5D5A77"/>
<path d="M79.6462 75.1985L71.0289 89.1197C71.0289 89.1197 67.5285 96.1036 72.6207 97.2599C76.2885 98.0939 78.3432 94.2882 79.6651 91.9391C79.8974 91.5226 82.6697 76.6169 82.6697 76.6169L79.6462 75.1985Z" fill="#FCC3B4"/>
<path d="M122.55 72.0485L114.887 80.972L107.498 59.5576C107.498 59.5576 115.709 59.5576 117.486 62.2379C118.955 64.4382 121.822 68.0904 122.55 72.0485Z" fill="#F0F0F0"/>
<path d="M114 89.0002C112.155 87.7977 108.805 75.1973 108.178 73.1924C106.86 68.9565 106.321 63.7512 106.366 59.3342C107.983 58.7294 109.779 59.2024 111.401 59.7837C113.091 65.6667 116.217 79.9077 116 86.0002L114 89.0002Z" fill="#5D5A77"/>
<path d="M78.311 76.6257C78.311 76.6257 79.8359 73.8443 80.4043 73.2557C80.9727 72.6671 81.544 73.3807 81.544 73.3807C81.544 73.3807 82.6097 71.2931 84.0503 71.5638C85.9655 71.9346 87.4603 75.6037 82.488 78.6257L78.311 76.6257Z" fill="#FCC3B4"/>
<path d="M92.4164 58.6494C92.4164 58.6494 94.2478 61.158 97.4775 61.6615C97.4775 61.6615 94.7869 65.0714 93.3839 65.7726C91.9809 66.4739 90.0482 61.3603 90.2648 60.1531C90.4813 58.9459 92.4164 58.6494 92.4164 58.6494Z" fill="#DADADA"/>
<path d="M103.831 58.3481C103.831 58.3481 99.7373 61.4591 97.4609 61.6615C97.4609 61.6615 98.7345 65.5749 99.8314 65.9749C100.928 66.375 105.21 61.8592 105.75 60.4543C106.289 59.0494 103.831 58.3481 103.831 58.3481Z" fill="#DADADA"/>
<path d="M82.4998 108.5L81.9355 96.4168L105.5 96.415C98.9998 102 92.9998 105.5 82.4998 108.5Z" fill="#3A6CB6"/>
<path d="M82.5667 103.535L82.6373 103.509C84.1413 103.003 85.4417 102.025 86.3449 100.721C87.2128 99.4584 87.6125 97.9327 87.4748 96.4072H82.0605L82.5667 103.535Z" fill="#2F5A99"/>
<ellipse cx="65.5" cy="120.5" rx="17.5" ry="3.5" fill="#DDEBEC"/>
<circle cx="121" cy="10" r="10" fill="#3BBEC5"/>
<path fill-rule="evenodd" clip-rule="evenodd" d="M121 4C121.473 4 121.857 4.38376 121.857 4.85714V9.14286H126.143C126.616 9.14286 127 9.52661 127 10C127 10.4734 126.616 10.8571 126.143 10.8571H121.857V15.1429C121.857 15.6162 121.473 16 121 16C120.527 16 120.143 15.6162 120.143 15.1429V10.8571H115.857C115.384 10.8571 115 10.4734 115 10C115 9.52661 115.384 9.14286 115.857 9.14286H120.143V4.85714C120.143 4.38376 120.527 4 121 4Z" fill="white"/>
</svg>
