<svg width="142" height="101" viewBox="0 0 142 101" fill="none" xmlns="http://www.w3.org/2000/svg">
<path d="M134.225 23.9999H44.1255V87.2342H134.225V23.9999Z" fill="#ED8E7C"/>
<path d="M131.727 84.7608V26.4745L46.6255 26.4745V84.7608H131.727Z" fill="#292C42"/>
<path d="M46.6265 26.4751L46.6265 84.7613H48.541V26.4751H46.6265Z" fill="#1D2133"/>
<path d="M131.728 26.4745H46.6265V28.37H131.728V26.4745Z" fill="#1D2133"/>
<path d="M46.6257 84.7613L44.1255 87.2366H134.227L131.727 84.7613H46.6257Z" fill="#905A68"/>
<path d="M131.727 26.4752L134.227 23.9999H44.1255L46.6257 26.4752H131.727Z" fill="#BF7472"/>
<path d="M136 87.237H42.3533V88.6675H136V87.237Z" fill="#ED8E7C"/>
<path d="M66.5002 85.2213H56.9536V87.2343H66.5002V85.2213Z" fill="#F8F8FF"/>
<path d="M120.96 59.1749C120.95 59.1638 120.939 59.1535 120.927 59.1441C120.931 59.1547 120.936 59.165 120.942 59.1749H120.96Z" fill="#F8F8FF"/>
<path d="M125.881 63.1603C125.905 63.1954 125.922 63.2343 125.933 63.2753C125.912 63.2344 125.886 63.1986 125.866 63.1578C125.783 63.1578 125.701 63.1348 125.608 63.1297C125.64 63.102 125.682 63.0867 125.725 63.0867C125.768 63.0867 125.81 63.102 125.843 63.1297C125.679 62.8356 125.498 62.5515 125.301 62.279C124.735 61.3896 123.987 60.6273 123.105 60.0413C121.944 59.3183 120.509 59.2136 119.139 59.2749C120.945 56.9069 123.105 54.876 123.102 51.642C123.102 48.2573 119.771 46.8166 117.067 48.408C115.122 49.5558 113.189 50.7335 111.267 51.9409C113.484 49.4196 115.114 46.5483 114.41 43.2556C113.917 40.9565 111.734 39.9347 109.569 40.4916C108.261 40.8339 106.863 41.6641 105.377 42.4969C104.18 43.1687 102.946 43.8457 101.798 44.6197C102.642 43.6362 103.403 42.6297 103.705 41.2988C104.141 39.3727 103.498 36.4095 101.125 35.9982C99.1533 35.661 97.5304 36.2818 96.0107 37.2039C96.6325 35.6993 96.6557 33.9163 95.2573 32.8102C94.8599 32.4962 94.3904 32.2839 93.8905 32.1921C93.3905 32.1003 92.8755 32.1319 92.3907 32.2839L92.4527 32.2431C91.9182 32.3445 91.4143 32.5655 90.9794 32.8894C90.8736 32.9583 90.7756 33.0324 90.6775 33.1065C88.9049 34.1615 87.5271 35.7913 86.0332 37.1937C85.1069 38.0674 84.2271 38.9487 83.3137 39.8019C83.5718 37.2678 82.4184 34.7388 79.1519 35.2548C77.7561 35.4745 76.5718 36.2537 75.3772 36.7518C75.2249 36.8156 75.0675 36.877 74.8998 36.9357C74.5281 36.1626 73.8958 35.5421 73.1118 35.1808C71.3189 34.3318 69.2593 34.2206 67.3838 34.8717C64.5921 35.873 62.7782 40.6372 66.6098 41.5338C67.1542 41.6616 67.7012 41.705 68.2456 41.7893C68.2847 42.2635 68.4033 42.728 68.5965 43.1636C69.2931 44.75 70.6606 45.2506 72.2087 45.1893C71.1173 46.722 69.9563 48.1781 68.9216 49.7364C68.1837 50.845 67.4948 52.084 66.6717 53.1364C65.3378 54.8454 63.8335 56.4113 63.0595 58.5009C62.922 58.8633 62.8547 59.248 62.8608 59.6351C62.6544 59.9442 62.4531 60.2584 62.2622 60.5803C60.9721 62.749 62.1126 66.3764 64.7624 66.8873C68.563 67.6179 72.637 63.9726 75.4262 61.7783C76.8324 60.6697 78.3108 59.5993 79.8125 58.552L79.7841 58.5826C79.1803 59.2749 78.494 59.9595 77.9393 60.6824C77.7406 60.966 77.5626 61.2623 77.3768 61.5535L77.3355 61.597C74.6392 63.9624 71.1225 69.3933 73.2795 72.9109C73.9994 74.0808 75.2456 75.0745 76.7317 74.8676C80.2124 74.3899 83.1822 71.2275 85.6565 69.0255C87.3156 67.5541 89.0623 66.0648 90.7498 64.5321C90.345 65.4179 90.0387 66.3447 89.8364 67.2961C89.2868 70.106 90.9639 72.4051 93.815 72.5124C95.9127 72.5941 98.111 70.926 99.7004 69.7867C101.834 68.254 104.087 66.9052 106.226 65.4032C106.091 66.126 106.065 66.8646 106.148 67.5949C106.481 70.3564 108.594 72.1241 111.383 71.2275C113.994 70.387 116.286 68.3025 119.026 68.162C119.338 68.6354 119.683 69.0869 120.058 69.5134C120.675 70.2363 121.438 70.8244 122.297 71.2404C123.156 71.6564 124.092 71.8912 125.048 71.9299C129.873 72.1931 130.84 63.7759 125.881 63.1603Z" fill="#2F3349"/>
<path d="M82.234 47.8611C81.2914 46.8079 79.2544 47.5602 78.5247 48.5231C77.8862 49.3656 77.6734 50.7498 78.4943 51.5923C79.4976 52.5853 81.2002 51.4719 81.8995 50.5692C81.8995 51.0507 81.9907 51.4419 82.1732 51.9233C82.2036 52.0437 82.4164 52.0136 82.386 51.8932C82.3252 50.6896 83.2069 48.9143 82.234 47.8611ZM81.5651 49.9674C80.9874 50.3586 79.7713 51.7428 79.0112 50.9604C78.4639 50.3887 78.92 49.3054 79.3456 48.824C79.9537 48.1921 81.5651 47.7708 81.8387 48.8842C81.9299 49.2152 81.8995 49.6063 81.8995 49.9674C81.8083 49.9072 81.6867 49.8772 81.5651 49.9674Z" fill="#F5F5F5"/>
<path d="M84.4843 47.2291C84.7579 46.8981 84.9403 46.5069 84.8491 46.0555C84.7883 45.7245 84.4843 45.4537 84.1498 45.3935C83.6025 45.2732 83.0249 45.5741 82.5384 45.8449C82.2648 45.9953 82.508 46.3865 82.7817 46.2662C83.1161 46.1157 83.5417 45.9352 83.937 45.9953C84.1194 46.0254 84.1802 46.0856 84.1802 46.2361C84.1498 46.7175 83.3289 46.9583 82.9337 47.0184C82.4776 47.0786 82.4168 47.8008 82.8121 47.9813C83.1465 48.1318 83.5113 48.192 83.8762 48.2221C84.241 48.2522 84.6971 48.2822 84.8795 47.8911C84.9707 47.5601 84.7275 47.3193 84.4843 47.2291Z" fill="#F5F5F5"/>
<path d="M87.5549 48.9443C87.3421 48.9142 87.0989 48.8841 86.886 48.8841C86.9164 48.6133 86.9164 48.3725 86.8252 48.1318C86.7036 47.8309 86.3387 47.8309 86.2171 48.1318C86.1259 48.3725 86.0955 48.6434 86.0955 48.9142C86.0347 48.9142 85.9739 48.9142 85.9131 48.9142C85.6394 48.9142 85.3354 48.9443 85.0618 48.9443C84.9402 48.9443 84.8185 48.9744 84.7273 49.0646C84.7273 49.0646 84.7273 49.0646 84.6969 49.0947C84.6057 49.1549 84.6057 49.2151 84.6057 49.3053C84.6057 49.3956 84.6361 49.4558 84.7273 49.516C84.8185 49.6063 84.9402 49.6363 85.0618 49.6363C85.3354 49.6664 85.6394 49.6664 85.9131 49.6664C85.9739 49.6664 86.0043 49.6664 86.0651 49.6664C86.0347 50.0275 86.0043 50.3886 86.0347 50.7497C86.0347 51.171 86.6732 51.171 86.6732 50.7497C86.7036 50.3886 86.734 50.0576 86.7644 49.6965C87.038 49.6965 87.2813 49.6965 87.5549 49.6363C87.9502 49.6363 87.9502 49.0345 87.5549 48.9443Z" fill="#F5F5F5"/>
<path d="M90.6873 47.8304C90.8089 46.7471 90.9002 45.6638 90.8698 44.5806C90.8393 44.2496 90.3833 44.2496 90.3529 44.5806C90.14 46.8976 89.5016 49.2146 89.6232 51.5315C89.6232 51.7723 89.8056 51.9528 90.0792 51.9829C91.7211 51.9829 93.2413 50.8996 93.1805 49.1844C93.0893 47.8003 91.7515 47.4693 90.6873 47.8304ZM92.2379 49.5756C92.0859 50.4784 91.2954 50.9297 90.4745 51.0501C90.4745 50.2376 90.5049 49.4553 90.5961 48.6729C91.4474 48.5225 92.4508 48.3419 92.2379 49.5756Z" fill="#F5F5F5"/>
<path d="M95.7639 46.8983C95.5815 46.8983 95.3991 46.8983 95.2167 46.9284C95.4903 46.2664 95.5207 45.5141 95.4903 44.7618C95.4903 44.5211 95.2775 44.2804 95.0343 44.3105C94.2741 44.3707 93.6053 44.6716 93.1188 45.2734C92.906 45.5442 93.1796 46.0257 93.514 45.7849C93.8485 45.5442 94.1525 45.3637 94.5174 45.2734C94.487 45.9655 94.4262 46.6275 93.9093 47.139C93.6053 47.4399 93.8181 47.9816 94.2741 47.9816C94.8214 47.9816 95.5207 48.0117 95.9768 47.6807C96.3416 47.4399 96.22 46.9284 95.7639 46.8983Z" fill="#F5F5F5"/>
<path d="M98.7135 49.8166C98.4095 49.6059 98.0142 49.8166 97.6798 49.9068C97.315 50.0272 96.9197 50.0874 96.5245 50.1175C96.1292 50.1475 96.1292 50.7193 96.5245 50.7193C96.9501 50.7493 97.3454 50.6892 97.771 50.629C98.1663 50.5688 98.7135 50.5688 98.8655 50.1175C98.8959 49.9971 98.8047 49.8767 98.7135 49.8166Z" fill="#F5F5F5"/>
<path d="M99.0172 48.8845C98.6828 48.5836 98.1963 48.704 97.7706 48.7341C97.4666 48.7642 96.8281 48.6739 96.6457 49.0049C96.5849 49.0952 96.5849 49.2155 96.6457 49.3359C96.8281 49.6669 97.4362 49.5766 97.7706 49.6067C98.1963 49.6368 98.6828 49.7271 99.0172 49.4562C99.1692 49.3058 99.1692 49.0049 99.0172 48.8845Z" fill="#F5F5F5"/>
<path d="M103.608 49.2757C102.787 49.5766 101.845 49.9076 101.662 48.7641C101.419 47.4702 102.878 46.9888 103.851 46.748C104.277 46.6578 104.125 46.086 103.76 46.0259C102.027 45.8453 100.264 47.2295 100.568 49.0349C100.872 50.7501 102.909 51.2015 104.064 49.9978C104.338 49.6969 104.064 49.0951 103.608 49.2757Z" fill="#F5F5F5"/>
<path d="M107.408 47.1391C107.073 46.8984 106.708 46.8683 106.313 46.7781C106.252 46.748 106.161 46.748 106.1 46.7179C106.374 46.4471 106.587 46.1462 106.678 45.7851C106.891 44.9124 106.009 44.4611 105.279 44.3708C104.793 44.3106 104.55 44.9726 105.067 45.1532C105.431 45.2735 105.857 45.3638 105.614 45.755C105.401 46.1161 104.915 46.3568 104.519 46.5072C104.063 46.6878 104.246 47.3498 104.641 47.4702C105.34 47.6507 106.587 48.403 107.256 47.9516C107.56 47.7711 107.681 47.3498 107.408 47.1391Z" fill="#F5F5F5"/>
<path d="M79.7819 57.6546C79.7532 57.3702 79.3508 57.1995 79.2071 57.5124C78.7472 58.3942 78.7472 59.3898 78.661 60.357C78.6322 60.613 78.6035 60.8406 78.5747 61.0966C78.2586 60.9544 77.8849 60.9828 77.5688 60.9828C77.1951 60.9828 76.8215 61.0682 76.534 61.2673C76.9364 59.9588 77.5113 58.7071 77.8562 57.3986C77.9424 57.0288 77.4538 56.8581 77.2526 57.1426C75.9879 59.1054 75.6718 61.7793 75.0107 63.9697C74.9245 64.2542 75.3843 64.4533 75.4993 64.1688C75.8155 63.4292 76.0742 62.6896 76.3328 61.9216C76.4191 62.0069 76.5915 62.0354 76.6778 61.8931C76.6778 61.8931 76.6778 61.8647 76.7065 61.8647C76.764 61.8647 76.8215 61.8362 76.8502 61.8362C77.1089 61.7224 77.425 61.7224 77.6837 61.7224C77.9424 61.7224 78.2298 61.8078 78.4885 61.7793C78.3161 62.8887 78.0574 63.9697 77.5688 64.9938C77.4825 65.1929 77.7412 65.3351 77.8562 65.1645C78.6035 64.1404 78.9771 63.0594 79.2358 61.8078C79.5232 60.5277 79.8969 58.9916 79.7819 57.6546Z" fill="#F5F5F5"/>
<path d="M82.7134 64.5098C82.3972 64.2253 81.9948 64.2538 81.5924 64.2253C81.3912 64.1969 81.19 64.1684 80.9888 64.14C81.0751 63.9409 81.1038 63.7702 81.1325 63.5426C81.1613 63.059 80.9314 62.547 80.8164 62.0918C80.7876 61.9781 80.6439 61.8643 80.529 61.8643C80.2703 61.8927 80.0403 61.9212 79.8392 62.1203C79.7242 62.2341 79.7242 62.4332 79.638 62.5754C79.4942 62.803 79.8392 63.0306 80.0116 62.8599C80.1553 62.6892 80.1841 62.5754 80.299 62.5185C80.3278 62.7461 80.3565 63.0021 80.3853 63.2297C80.414 63.6848 80.1841 63.9693 79.8679 64.2538C79.523 64.5382 79.8392 65.0503 80.2128 65.0787C80.6727 65.1072 81.1613 65.1356 81.6212 65.1925C82.0523 65.2209 82.3972 65.3063 82.7421 65.0218C82.8571 64.8796 82.8283 64.6236 82.7134 64.5098Z" fill="#F5F5F5"/>
<path d="M84.3228 58.3373C84.2653 58.3658 84.2366 58.3942 84.2078 58.4511C81.9085 59.7596 81.2474 64.8231 84.8114 64.1972C86.421 63.9128 87.197 61.9215 87.2545 60.4992C87.2833 59.1054 85.8461 57.3417 84.3228 58.3373ZM84.8402 63.0594C83.4318 63.8559 83.2019 62.0069 83.4318 61.125C83.633 60.4423 84.0354 59.6743 84.6102 59.1338C85.0126 59.1907 85.415 59.1054 85.7599 59.3898C86.0761 59.6459 86.1336 60.1294 86.1623 60.4992C86.191 61.4664 85.7024 62.5758 84.8402 63.0594Z" fill="#F5F5F5"/>
<path d="M98.5943 71.8213C97.9898 71.7963 97.6121 72.0713 97.0328 71.7463C96.6046 71.4962 96.2521 71.0711 95.8995 70.7461C95.295 70.221 94.615 69.9709 93.8846 70.196C93.7839 69.9709 93.4061 69.9209 93.2046 70.146C92.4491 71.1211 92.0461 72.4714 91.4668 73.5466C91.2653 73.9216 91.0135 74.4217 90.7113 74.8968C90.7868 72.4964 86.5809 73.9716 87.0342 76.122C87.3868 77.7973 89.6031 77.2472 90.4594 76.4221C91.5928 75.3469 92.4994 73.7216 93.1794 72.1463C93.2046 72.1713 93.2046 72.1713 93.2298 72.1963C94.3631 72.6964 95.018 73.8966 96.1765 74.4217C97.4358 74.9718 98.3928 74.0467 98.6699 72.8714C98.695 72.7464 98.6699 72.6464 98.6195 72.5464C98.695 72.4714 98.7706 72.3964 98.8462 72.3213C99.0476 72.0963 98.821 71.8213 98.5943 71.8213ZM88.4698 76.3971C87.2609 76.147 88.1675 75.0468 88.7468 74.6218C89.9053 73.7966 90.1572 74.6718 90.1572 75.6969C89.6787 76.222 89.1246 76.5471 88.4698 76.3971ZM96.9069 73.6966C96.4787 73.6966 96.0254 73.3215 95.6728 73.0965C94.9676 72.6214 94.2624 72.0213 93.4565 71.7712C93.4313 71.7712 93.4061 71.7712 93.3809 71.7712C93.532 71.3962 93.6831 71.0211 93.8091 70.6461C94.9928 70.596 95.5469 71.6712 96.378 72.3213C96.7558 72.6214 97.2847 72.8214 97.7632 72.8214C97.6121 73.2465 97.3854 73.6966 96.9069 73.6966Z" fill="#F5F5F5"/>
<path d="M77.5267 36.9317C78.1234 36.2779 78.6774 35.4554 78.3578 34.654C77.8889 33.5151 75.9498 34.0213 75.1613 34.3798C75.0974 34.4009 75.0761 34.4431 75.0548 34.4852C74.2237 33.5151 73.2008 32.8402 72.391 33.7682C72.2206 33.958 72.3697 34.2111 72.5828 34.2111C71.9009 34.3165 71.6026 35.0125 71.5813 35.9405C70.3027 36.0459 69.0454 36.4255 68.3209 37.3324C68.2357 37.2059 67.9799 37.2481 68.0013 37.4168C68.1291 38.4291 68.811 39.0407 69.706 39.4414C69.0881 40.517 69.0667 41.445 70.1748 41.8668C71.219 42.2675 72.4337 41.4239 73.2221 40.8756C73.2647 40.8545 73.2861 40.8334 73.3287 40.8123C74.1171 41.8036 75.14 42.373 76.2268 42.0355C77.1857 41.7403 77.4841 40.9178 77.4414 39.9898C77.9742 39.8 78.4217 39.5047 78.6135 39.0196C79.0397 38.0706 78.4217 37.3957 77.5267 36.9317ZM77.3562 34.6751C78.2938 34.8649 77.271 36.1092 76.8448 36.6154C76.6743 36.5521 76.5251 36.4888 76.3547 36.4466C76.1629 36.067 75.8219 35.4765 75.3957 34.907C75.4596 34.8649 75.5449 34.8227 75.6088 34.8016C76.2055 34.6751 76.7595 34.5485 77.3562 34.6751ZM73.8401 39.5258C73.7975 39.5258 73.7549 39.5258 73.7122 39.5258C73.5844 39.5258 73.4352 39.5258 73.2861 39.5258C72.8812 38.872 72.5615 38.1128 72.3697 37.3957C72.4976 37.2692 72.6255 37.1637 72.732 37.0583C72.8812 36.9317 73.0303 36.7841 73.2008 36.6365C73.2434 36.6365 73.2861 36.6365 73.3287 36.6365C73.627 36.6365 74.9908 36.8052 76.1629 37.1637C76.1842 37.2059 76.2055 37.2692 76.2268 37.3113C75.7367 37.8175 75.2465 38.3026 74.7351 38.7876C74.6499 38.872 74.3089 39.1673 73.8401 39.5258ZM72.4763 39.4625C71.8583 39.4204 71.1977 39.336 70.601 39.1673C70.9633 38.6822 71.4321 38.2393 71.8796 37.8386C72.0075 38.3869 72.2206 38.9564 72.4763 39.4625ZM73.9467 35.9616C74.2876 35.6663 74.6286 35.4132 74.9908 35.1601C75.2679 35.4765 75.5023 35.8561 75.7367 36.2779C75.2679 36.1514 74.8417 36.0881 74.5646 36.0459C74.3942 36.0248 74.1811 36.0037 73.9467 35.9616ZM72.9238 34.4642C73.073 34.4009 72.9877 34.19 72.8599 34.19C72.7746 34.19 72.7107 34.19 72.6468 34.2111C72.6681 34.2111 72.7107 34.19 72.732 34.19C73.3713 33.8525 74.0958 34.19 74.7351 34.8438C74.2237 35.118 73.6696 35.4976 73.1156 35.9194C72.8172 35.8983 72.4976 35.8983 72.1779 35.8983C72.1993 35.2445 72.4124 34.7172 72.9238 34.4642ZM68.5766 37.8808C68.6619 37.8808 68.7258 37.8597 68.7897 37.7753C69.429 36.995 70.5371 36.7208 71.6239 36.6365C71.6452 36.7841 71.6665 36.9317 71.6878 37.0793C71.0272 37.691 70.4306 38.3448 69.9831 38.9775C69.4077 38.7455 68.8963 38.3869 68.5766 37.8808ZM69.9404 40.749C69.9191 40.3905 70.047 40.032 70.2601 39.6524C71.1125 39.9265 72.0501 40.0531 72.8386 40.1163C72.8599 40.1374 72.8812 40.1796 72.9025 40.2007C71.56 41.1498 70.0044 41.9512 69.9404 40.749ZM75.8645 41.4028C75.2466 41.5927 74.5433 41.1287 73.9253 40.3694C73.9893 40.3272 74.0319 40.2851 74.0958 40.2429C74.9056 40.3062 75.9071 40.3272 76.7595 40.1796C76.6743 40.7912 76.3973 41.2552 75.8645 41.4028ZM74.8843 39.568C75.4383 39.0829 75.9711 38.5557 76.4825 38.0284C76.6317 38.5346 76.7382 39.0407 76.7809 39.4836C76.1842 39.5891 75.5023 39.5891 74.8843 39.568ZM77.825 38.9564C77.6972 39.104 77.548 39.2095 77.3349 39.2938C77.2283 38.7033 77.0366 38.1128 76.8448 37.6066C76.8874 37.5644 76.9513 37.5011 76.9939 37.4379C77.8676 37.8175 78.3578 38.3237 77.825 38.9564Z" fill="#F5F5F5"/>
<path d="M73.9897 37.9654C73.9897 37.9654 73.9897 37.9654 73.9684 37.9443C73.9044 37.6701 73.67 37.4381 73.3504 37.4381C73.1799 37.4381 73.0307 37.5014 72.9029 37.6279C72.7324 37.7966 72.7111 38.0075 72.7324 38.2395C72.7537 38.4293 72.9029 38.6191 73.0307 38.7668C73.2651 38.9988 73.67 38.9988 73.9044 38.7668C74.1388 38.5348 74.1388 38.2184 73.9897 37.9654Z" fill="#F5F5F5"/>
<path d="M118.581 71.9102C118.538 71.8469 118.474 71.8258 118.431 71.8047C118.559 70.4971 118.517 69.1263 118.431 67.8609C119.156 67.8398 120.115 67.5023 119.582 66.6587C118.943 65.6675 117.217 65.8151 116.258 66.026C115.789 66.1315 114.106 66.5744 114.574 67.3758C114.958 68.0296 115.576 67.4813 115.491 68.5569C115.384 69.8855 115.256 71.1931 115.15 72.5218C114.148 74.9894 111.676 76.6977 111.271 79.4183C111.25 79.5448 111.271 79.7346 111.421 79.7979C112.955 80.4728 114.809 80.5993 116.471 80.7259C118.069 80.8524 120.349 81.1055 121.798 80.2197C124.142 78.7223 119.497 73.1545 118.581 71.9102ZM120.946 79.8401C119.944 80.1986 118.73 80.1143 117.686 80.1143C116.386 80.0932 115.086 79.9666 113.807 79.7557C113.381 79.6925 112.955 79.587 112.55 79.4816C111.698 79.2707 112.039 78.8278 112.358 78.1107C112.742 77.2671 113.445 76.4657 114.084 75.6642C113.701 76.4446 116.023 76.8031 116.386 76.8242C117.515 76.9296 119.241 76.7398 119.774 75.5377C120.2 74.5886 118.879 74.3567 118.24 74.3356C117.536 74.3145 115.448 74.3567 115.214 75.2003C115.171 75.3479 115.256 75.5166 115.405 75.5377C115.938 75.6431 116.727 75.2213 117.281 75.1581C117.558 75.137 119.049 75.2003 119.049 75.2213C118.687 76.0439 117.345 76.1493 116.599 76.1493C116.109 76.1493 115.597 76.1071 115.107 75.9806C114.787 75.8962 114.532 75.6221 114.233 75.5588C114.212 75.5588 114.191 75.5588 114.17 75.5588C114.788 74.7574 115.32 73.9559 115.448 73.028C115.512 73.0069 115.555 72.9647 115.576 72.8803C115.96 71.1299 116.045 69.3372 116.173 67.5656C116.173 67.4391 116.066 67.3125 115.96 67.2704C114.532 66.9962 116.13 66.6587 116.727 66.5322C117.281 66.4057 117.835 66.4478 118.389 66.5955C118.794 66.6166 118.943 66.8064 118.836 67.186C118.602 67.2282 118.368 67.2493 118.133 67.3125C117.92 67.3547 117.899 67.5656 118.005 67.7132C117.984 67.7554 117.963 67.7765 117.963 67.8398C117.835 69.3372 117.579 70.9611 117.771 72.4585C117.813 72.7327 118.197 72.8592 118.325 72.6483C119.241 74.0614 120.243 75.4112 121.01 76.9086C121.436 77.71 122.246 79.3761 120.946 79.8401Z" fill="#F5F5F5"/>
<path d="M117.942 66.6378C117.728 66.5324 117.558 66.5956 117.345 66.6589C117.281 66.68 117.217 66.7011 117.153 66.7011C117.11 66.7011 117.089 66.7222 117.132 66.7011C117.11 66.7011 117.11 66.7011 117.11 66.7011C117.11 66.7011 117.11 66.7011 117.089 66.7011C116.897 66.6589 116.706 66.7644 116.642 66.9542C116.578 67.1651 116.706 67.3127 116.897 67.3971C117.047 67.4604 117.238 67.4393 117.409 67.4182C117.665 67.376 117.942 67.3549 118.069 67.1229C118.155 66.9542 118.112 66.7222 117.942 66.6378Z" fill="#F5F5F5"/>
<path d="M116.087 64.1913C115.917 64.1069 115.746 64.2756 115.831 64.4443C115.831 64.4443 115.831 64.4654 115.853 64.4654C115.725 64.5076 115.597 64.5498 115.469 64.6552C115.256 64.824 115.213 65.1192 115.213 65.3723C115.213 65.5199 115.341 65.6465 115.49 65.6465C115.895 65.6465 116.449 65.6043 116.62 65.1825C116.748 64.824 116.385 64.3811 116.087 64.1913ZM115.746 65.0981C115.767 65.0349 115.767 64.9716 115.831 64.9083C115.895 64.8451 115.959 64.7818 116.002 64.7185C116.023 64.7607 116.044 64.7818 116.066 64.824C116.108 64.8872 116.13 64.9716 116.13 64.9927C116.087 65.0138 116.044 65.0349 116.002 65.056C115.917 65.0981 115.831 65.0981 115.746 65.0981Z" fill="#F5F5F5"/>
<path d="M119.284 63.0104C118.645 62.5464 117.835 62.8839 117.515 63.5166C117.473 63.5588 117.451 63.5798 117.409 63.622C117.196 63.8962 117.089 64.2758 117.217 64.5922C117.579 65.478 118.943 65.2882 119.54 64.782C120.179 64.2758 119.859 63.4111 119.284 63.0104ZM119.135 64.2547C118.922 64.5289 118.069 64.782 117.835 64.4235C117.6 64.0438 118.176 63.5799 118.474 63.4955C118.538 63.4744 118.559 63.4322 118.581 63.39C118.687 63.39 118.794 63.4322 118.9 63.4955C119.156 63.6642 119.305 64.0438 119.135 64.2547Z" fill="#F5F5F5"/>
<path d="M117.323 60.606C117.259 60.5639 117.174 60.5217 117.089 60.5428C116.918 60.606 116.769 60.6904 116.684 60.8591C116.641 60.9857 116.599 61.0911 116.556 61.2177C116.535 61.2809 116.556 61.3442 116.577 61.3864C116.492 61.5551 116.45 61.7449 116.513 61.9347C116.62 62.2721 116.982 62.3565 117.302 62.2932C117.6 62.23 117.877 61.9769 117.92 61.6605C118.005 61.1966 117.664 60.8802 117.323 60.606ZM117.302 61.4918C117.302 61.5129 117.302 61.5129 117.302 61.534C117.302 61.5551 117.302 61.5551 117.302 61.5551C117.302 61.5762 117.281 61.5973 117.281 61.5973C117.259 61.6184 117.259 61.6184 117.238 61.6394C117.217 61.6605 117.174 61.6605 117.153 61.6816C117.131 61.6816 117.11 61.6816 117.11 61.7027C117.11 61.6816 117.131 61.6394 117.131 61.6184C117.174 61.5129 117.217 61.4075 117.259 61.302C117.281 61.3653 117.302 61.4075 117.302 61.4918C117.302 61.4707 117.302 61.4707 117.302 61.4918Z" fill="#F5F5F5"/>
<path d="M113.255 31.3109C113.111 30.882 112.562 30.9106 112.388 31.3109C111.608 33.2267 110.973 35.2282 110.482 37.2297C110.251 38.1161 109.557 40.1749 110.424 40.9469C110.539 41.0612 110.713 40.9755 110.713 40.8325C110.771 39.603 111.002 38.3449 111.319 37.144C111.551 37.144 111.782 37.144 112.042 37.144C112.504 37.1154 113.024 37.1726 113.486 37.0582C113.602 38.0875 113.775 39.1741 114.266 40.0319C114.497 40.4608 115.075 40.1463 115.018 39.7174C114.497 36.9152 114.151 33.9415 113.255 31.3109ZM112.1 36.4291C111.955 36.4577 111.695 36.4577 111.464 36.4863C111.811 35.2282 112.244 33.9987 112.735 32.7978C112.995 33.8557 113.14 34.9137 113.313 35.9716C113.313 36.0574 113.342 36.1718 113.342 36.2576C112.966 36.229 112.475 36.3719 112.1 36.4291Z" fill="#F5F5F5"/>
<path d="M118.802 34.5708C118.484 34.4278 118.137 34.4278 117.819 34.4564C117.848 34.0561 117.877 33.6272 117.79 33.2269C117.704 32.8552 117.097 32.8552 117.039 33.2269C116.953 33.6272 116.981 34.0561 117.039 34.485C116.635 34.485 116.23 34.5136 115.855 34.5136C115.364 34.5136 115.364 35.257 115.855 35.2856C116.288 35.2856 116.721 35.3142 117.155 35.3142C117.213 35.7717 117.328 36.2292 117.588 36.5723C117.704 36.7438 118.05 36.7152 118.022 36.4579C117.993 36.0862 117.935 35.7145 117.877 35.3428C118.224 35.3714 118.542 35.3428 118.83 35.1998C119.062 35.114 119.062 34.6851 118.802 34.5708Z" fill="#F5F5F5"/>
<path d="M124.15 55.3998C123.318 54.3453 122.402 53.3329 121.422 52.405C120.761 51.7934 119.675 50.6545 118.673 50.6967C116.031 50.781 114.155 54.0711 112.387 55.6529C112.131 55.8848 112.493 56.2223 112.749 56.0114C112.792 55.9903 112.813 55.9481 112.855 55.927C116.414 56.5597 119.994 55.4841 123.574 55.9059C123.702 55.927 123.766 55.8638 123.83 55.7794C124.064 55.927 124.341 55.6107 124.15 55.3998ZM113.218 55.6107C113.559 55.2943 113.921 54.9358 114.262 54.5773C114.411 54.7038 114.582 54.8092 114.709 54.9569C114.88 55.1467 114.965 55.3787 114.986 55.6318C114.39 55.6529 113.814 55.6529 113.218 55.6107ZM121.209 54.9991C119.248 55.0201 117.288 55.463 115.327 55.5896C115.306 55.3154 115.242 55.0623 115.114 54.8092C115.008 54.5983 114.816 54.3453 114.582 54.1976C115.668 53.0588 116.798 51.9199 118.204 51.4348C119.376 51.0341 120.825 52.7846 121.55 53.4595C121.614 53.5227 121.656 53.586 121.72 53.6282C121.273 53.9024 121.124 54.4718 121.209 54.9991ZM121.784 55.0201C121.784 54.9358 121.784 54.8514 121.805 54.7671C121.848 54.4929 122.061 54.3031 122.189 54.0711C122.551 54.4296 122.914 54.8092 123.276 55.1889C122.764 55.0834 122.274 55.0412 121.784 55.0201Z" fill="#F5F5F5"/>
<path d="M119.93 48.2919C119.482 47.9334 118.907 47.617 118.31 47.8068C117.884 47.9334 117.586 48.313 117.479 48.7348C117.266 49.5362 117.82 50.6329 118.8 50.2955C119.163 50.1689 119.525 49.8948 119.717 49.5362C119.845 49.3042 119.589 48.9879 119.333 49.1566C119.184 49.241 119.056 49.3464 118.928 49.473C118.864 49.5151 118.779 49.5784 118.673 49.6417C118.673 49.6417 118.651 49.6417 118.651 49.6628C118.63 49.6628 118.609 49.6839 118.609 49.6839C118.587 49.6839 118.545 49.7049 118.523 49.7049C118.502 49.7049 118.481 49.7049 118.459 49.7049C118.438 49.7049 118.396 49.7049 118.374 49.6839C118.353 49.6839 118.353 49.6628 118.332 49.6628C118.332 49.6628 118.332 49.6628 118.31 49.6628C118.31 49.6628 118.31 49.6628 118.289 49.6417C118.289 49.6417 118.268 49.5995 118.246 49.5995C118.225 49.5784 118.204 49.5362 118.182 49.5151C118.182 49.494 118.182 49.494 118.161 49.494C118.161 49.494 118.161 49.494 118.161 49.473C118.14 49.4308 118.14 49.3886 118.118 49.3464C118.118 49.3253 118.097 49.2831 118.097 49.2621C118.097 49.2199 118.097 49.1777 118.097 49.1566C118.097 49.1144 118.097 49.0722 118.097 49.0301C118.097 49.009 118.097 48.9879 118.097 48.9668C118.118 48.8824 118.14 48.8192 118.161 48.7348C118.161 48.7137 118.182 48.6715 118.204 48.6504C118.204 48.6293 118.246 48.5872 118.246 48.5661C118.268 48.545 118.289 48.5028 118.31 48.4817L118.332 48.4606C118.332 48.4606 118.374 48.4395 118.374 48.4184C118.502 48.3341 118.673 48.2919 118.886 48.313C119.205 48.313 119.504 48.3974 119.802 48.5028C119.909 48.545 120.015 48.3763 119.93 48.2919Z" fill="#F5F5F5"/>
<path d="M111.534 55.1882C111.427 54.5977 111.235 54.0493 110.98 53.501C110.894 53.3112 110.639 53.3534 110.532 53.501C109.935 54.45 109.808 55.7154 109.509 56.7699C109.445 57.0019 109.808 57.1496 109.893 56.9387C110.042 56.6012 110.149 56.2638 110.255 55.9053C110.511 55.9263 110.745 55.9474 111.001 55.9474C111.044 55.9474 111.086 55.9263 111.107 55.9053C111.15 56.1583 111.214 56.3903 111.406 56.5801C111.491 56.6645 111.661 56.6223 111.704 56.4958C111.832 56.0951 111.619 55.61 111.534 55.1882ZM111.022 55.6944C110.788 55.6944 110.553 55.7154 110.34 55.7154C110.362 55.61 110.404 55.5256 110.426 55.4202C110.532 55.0406 110.66 54.682 110.809 54.3235C110.916 54.6399 111.001 54.9773 111.065 55.3147C111.086 55.4413 111.107 55.5678 111.107 55.6944C111.065 55.6944 111.044 55.6944 111.022 55.6944Z" fill="#F5F5F5"/>
<path d="M127.047 56.4327C126.94 55.6734 126.088 55.2094 125.406 55.4836C125.342 55.1672 125.299 54.8509 125.257 54.5345C125.214 54.2393 124.788 54.2182 124.766 54.5345C124.681 55.5258 124.916 56.4748 125.065 57.445C125.086 57.5505 125.193 57.6559 125.299 57.677C126.194 57.909 127.174 57.445 127.047 56.4327ZM125.704 57.0654C125.64 56.7279 125.576 56.3694 125.512 56.032C125.917 55.9898 126.407 55.8843 126.45 56.4327C126.493 56.8967 126.109 57.0865 125.704 57.0654Z" fill="#F5F5F5"/>
<path d="M64.5978 100H27.6167C27.6167 100 28.0406 96.0689 28.8069 90.7044C28.9346 89.8282 29.0787 88.9163 29.2145 87.9711C30.0895 82.2413 31.2933 75.5051 32.7471 70.2351C33.2253 68.4416 33.8253 66.6788 34.5433 64.9575C34.8417 64.2514 35.1978 63.5682 35.6086 62.9139L44.2553 64.327L50.2064 64L55.5189 60.3696L62.6603 63.1515L64.0543 63.6956L64.2744 78.1464L64.4239 87.966L64.4673 90.6993L64.5978 100Z" fill="#6879AF"/>
<path d="M88.5871 100H60.0001C60.0001 100 58.3222 86.6048 58.8766 76.4301C59.1059 72.1511 58.6739 67.8635 57.594 63.701C57.1953 62.0915 56.66 60.5146 55.9934 58.9854C60.8195 57.3863 72.9938 54.8746 77.9911 62.9621C78.8607 64.3927 79.8091 66.5895 80.7629 69.2462C85.1732 81.6075 88.5871 100 88.5871 100Z" fill="#6879AF"/>
<path d="M80.9275 69.5071C74.8106 62.8066 64.0597 59.2161 59.394 62.6213C58.7956 63.0563 58.1694 63.3097 57.519 63.6727C57.1203 62.0631 56.5866 60.4515 55.9199 58.9224C60.746 57.3233 73.3119 54.9566 78.3092 63.0442C79.1733 64.4721 79.9737 66.8504 80.9275 69.5071Z" fill="#4F5F92"/>
<path d="M36.7773 60.5609C36.2338 61.879 35.7066 63.261 35.2229 64.6813C30.03 79.9751 28.8669 99.9999 28.8669 99.9999H5C5.38859 96.135 6.56402 70.7259 14.6238 63.4507C15.1273 62.9783 15.7104 62.5873 16.3494 62.2935C25.507 58.2497 33.3071 60.1751 36.7773 60.5609Z" fill="#6879AF"/>
<path d="M36.7766 60.5612C36.2331 61.8793 35.7059 63.2613 35.2222 64.6816C34.8737 64.4208 34.5491 64.1329 34.2521 63.8207C30.176 59.5522 20.425 62.7281 14.1179 63.9772C14.598 63.4801 14.4515 63.4801 15.6237 62.6734C23.6098 57.9801 33.3065 60.1755 36.7766 60.5612Z" fill="#4F5F92"/>
<path d="M65.2808 26.7137C64.7278 28.1722 64.0592 29.5896 63.2808 30.9542C65.0851 30.8239 62.221 35.7617 58.4927 38.3239C54.7644 40.8861 56.9655 48.8255 48.9193 48.2993C40.8731 47.773 37.2617 43.4713 37.2617 43.4713L27.6665 37.4707C27.2073 36.1935 23.71 33.7284 21.9899 30.4739C20.9328 28.4635 20.5524 26.1466 21.9899 23.6099C17.5714 16.0869 21.4464 1.41126 34.2182 1.02042C46.7427 0.637244 51.99 6.34146 52.1829 6.55604C52.0823 6.41554 50.5063 4.13437 52.1829 3.56471C53.9166 2.97717 62.5905 10.9345 63.0063 18.5009C63.7835 16.6974 68.24 18.7359 65.2808 26.7137Z" fill="#4D4D4D"/>
<path d="M58.4921 38.3368C54.7638 40.8913 56.9649 48.8384 48.9187 48.3173C40.8725 47.7962 37.2611 43.4893 37.2611 43.4893L27.6659 37.4887C27.2067 36.2115 23.7094 33.7464 21.9893 30.4919C20.6143 26.1288 22.1659 22.1361 29.4268 23.9958C26.5844 19.8217 26.3045 14.7357 36.2203 17.6095C46.0029 20.4348 48.1551 22.4375 48.2203 22.4989C48.1443 22.3762 45.7747 18.5649 48.6415 17.2187C51.5546 15.8495 59.3264 19.8345 60.7829 24.6906C61.4052 26.7649 63.3318 26.6678 65.2802 26.7342C64.7272 28.1927 64.0586 29.6102 63.2802 30.9747C65.0845 30.824 62.2204 35.7619 58.4921 38.3368Z" fill="#333333"/>
<path d="M28.8081 35.1285C25.6885 33.9559 25.4793 38.6843 28.0472 41.3564C30.6151 44.0284 31.4113 39.793 31.4113 39.793L28.8081 35.1285Z" fill="#FCA897"/>
<path d="M48 66.5C47.4353 66.5761 46 64 46 64C46 64 44.5299 66.6618 43.9634 66.5C40.8164 65.6015 38.5458 63.1242 38.0249 61.9993C37.8075 61.5242 37.8292 60.5994 37.9325 59.3937C38.0412 58.0986 38.2395 56.479 38.3265 54.7522C38.447 52.9675 38.3458 51.1758 38.0249 49.4132L51.245 42.8507L52.8755 42.0435C52.8755 42.2657 52.8564 42.4905 52.8483 42.7128L53.3917 51.909C53.7042 54.1033 54.082 55.8838 54.3483 56.972C54.4216 57.2684 54.4841 57.5136 54.5358 57.7026C55.0249 59.4576 52.856 65.8486 48 66.5Z" fill="#FCA897"/>
<path d="M53.3942 51.9008C50.4785 55.2217 42.9132 56.4759 38.3263 54.7516C38.4468 52.967 38.3456 51.1753 38.0247 49.4127L51.2448 42.8502L52.8453 42.7122L53.3942 51.9008Z" fill="#EF9181"/>
<path d="M56.194 38.5301C55.298 41.3374 53.9461 44.122 52.224 46.5654C51.9794 46.9052 51.8744 47.1425 51.6135 47.4669C51.3989 47.7224 51.1468 48.1283 50.9158 48.3684C49.7415 49.7236 49.139 50.6321 47.5146 51.4826C46.1776 52.1669 43.7563 52.9601 42.2347 53.0048C41.7499 53.0157 40.5829 53.0147 40.1017 52.9578C39.438 52.8822 37.7615 52.5252 37.1365 52.3022C31.824 50.417 29.9874 43.4143 28.3787 36.3817C27.9676 34.646 27.6745 32.8875 27.501 31.1169C27.4086 30.0951 27.3597 29.0988 27.3542 28.1409C34.1668 30.7337 44.6559 26.976 48.7809 26.5392C52.9059 26.1024 55.6559 27.561 55.6559 27.561C55.6559 27.561 55.1695 27.727 54.569 28.708C53.9684 29.6889 54.9413 36.4021 55.357 36.2336C55.4549 36.1927 55.5608 35.9398 55.6777 35.5592C56.0663 34.3304 56.5989 31.7887 57.5255 31.0147C58.7375 29.9929 61.6016 30.3403 62.1451 33.6586C62.6886 36.9769 58.9168 40.0551 56.194 38.5301Z" fill="#FCC3B4"/>
<path d="M40.4947 35.973C40.6204 36.2629 40.6796 36.5746 40.6686 36.8875C40.6686 37.7484 40.3534 38.857 40.0273 39.8456C39.8642 40.3412 39.7012 40.8061 39.5762 41.2046C39.5137 41.4013 39.4621 41.5852 39.424 41.7487C39.3866 41.8927 39.3657 42.04 39.3615 42.1881C39.3592 42.276 39.3778 42.3632 39.4159 42.4435C39.5654 42.7672 39.832 43.0306 40.1686 43.1869C40.4565 43.3139 40.7718 43.3768 41.0898 43.3708C41.4884 43.3669 41.8835 43.2995 42.2582 43.1716C42.2916 43.1593 42.3221 43.141 42.3479 43.1177C42.3738 43.0944 42.3945 43.0665 42.4089 43.0357C42.4232 43.0049 42.431 42.9717 42.4318 42.938C42.4325 42.9043 42.4262 42.8709 42.4131 42.8395C42.4001 42.8081 42.3807 42.7795 42.3559 42.7552C42.3311 42.7309 42.3014 42.7114 42.2686 42.6979C42.2358 42.6844 42.2005 42.6771 42.1647 42.6764C42.1289 42.6757 42.0932 42.6816 42.0599 42.6939C41.7491 42.7977 41.4223 42.853 41.0925 42.8574C40.8576 42.8631 40.6243 42.8186 40.4104 42.7271C40.1835 42.6192 40.0059 42.4377 39.9104 42.2162H39.886H39.9131H39.8887H39.9159C39.9125 42.1976 39.9125 42.1786 39.9159 42.16C39.9212 42.0481 39.9375 41.9369 39.9648 41.8279C40.0816 41.317 40.3968 40.4868 40.6794 39.5876C40.9899 38.7052 41.1727 37.7876 41.2229 36.8594C41.2355 36.4732 41.1595 36.089 41.0001 35.7329C40.9702 35.6712 40.9155 35.6232 40.8479 35.5995C40.7804 35.5758 40.7056 35.5783 40.6401 35.6064C40.5745 35.6345 40.5235 35.686 40.4982 35.7495C40.473 35.8129 40.4756 35.8832 40.5055 35.9449L40.4947 35.973Z" fill="#EF9181"/>
<path d="M51.2437 35.3028L50.9726 35.3204C51.0372 36.199 50.7757 37.0714 50.2326 37.789C49.6896 38.5066 48.8987 39.025 47.9946 39.2558C47.0905 39.4866 46.1293 39.4155 45.2746 39.0547C44.42 38.6939 43.7249 38.0657 43.3078 37.2771C42.8907 36.4885 42.7774 35.5884 42.9872 34.7301C43.197 33.8718 43.7169 33.1085 44.4583 32.5702C45.1997 32.0319 46.1168 31.7519 47.0532 31.7781C47.9896 31.8042 48.8874 32.1348 49.5937 32.7135C49.9951 33.041 50.3237 33.4399 50.5603 33.8874C50.797 34.3348 50.9371 34.8218 50.9726 35.3204L51.5148 35.2852C51.4522 34.4333 51.1224 33.6179 50.5668 32.9423C50.0113 32.2666 49.2551 31.7609 48.3939 31.4893C47.5326 31.2176 46.605 31.1922 45.7285 31.4162C44.8519 31.6402 44.0656 32.1035 43.4692 32.7476C42.8728 33.3917 42.493 34.1877 42.3779 35.0347C42.2627 35.8818 42.4174 36.7419 42.8223 37.5063C43.2273 38.2708 43.8643 38.9052 44.6527 39.3293C45.4412 39.7534 46.3458 39.9481 47.252 39.8889C48.4666 39.8095 49.5979 39.2799 50.3973 38.4167C51.1966 37.5534 51.5986 36.4271 51.5148 35.2852L51.2437 35.3028Z" fill="#442727"/>
<path d="M38.9153 36.1021L38.6442 36.1197C38.7088 36.9982 38.4473 37.8707 37.9043 38.5883C37.3612 39.3059 36.5703 39.8243 35.6662 40.0551C34.7621 40.2859 33.8009 40.2148 32.9463 39.854C32.0917 39.4932 31.3966 38.865 30.9794 38.0764C30.5623 37.2878 30.449 36.3877 30.6588 35.5294C30.8686 34.6711 31.3885 33.9077 32.1299 33.3694C32.8713 32.8311 33.7884 32.5512 34.7248 32.5773C35.6612 32.6035 36.5591 32.934 37.2653 33.5127C37.6663 33.8406 37.9945 34.2396 38.2312 34.687C38.4678 35.1343 38.6081 35.6212 38.6442 36.1197L39.1864 36.0845C39.1239 35.2327 38.7941 34.4174 38.2387 33.7418C37.6833 33.0661 36.9272 32.5605 36.0661 32.2887C35.205 32.017 34.2776 31.9914 33.4011 32.2152C32.5245 32.439 31.7383 32.9021 31.1418 33.5459C30.5452 34.1898 30.1652 34.9855 30.0497 35.8324C29.9342 36.6793 30.0885 37.5394 30.493 38.3039C30.8976 39.0684 31.5342 39.703 32.3223 40.1274C33.1105 40.5519 34.0148 40.747 34.9209 40.6883C35.5226 40.6493 36.1102 40.4993 36.6501 40.2469C37.1901 39.9944 37.6719 39.6444 38.068 39.2169C38.4641 38.7894 38.7667 38.2928 38.9586 37.7553C39.1505 37.2178 39.2279 36.6501 39.1864 36.0845L38.9153 36.1021Z" fill="#442727"/>
<path d="M39.1058 35.7825C39.2329 35.618 39.3823 35.4697 39.5501 35.3414C39.865 35.0872 40.2562 34.9312 40.6695 34.895C41.1439 34.8643 41.7292 35.0082 42.4419 35.5893L42.7978 35.2052C42.0121 34.5571 41.2638 34.3444 40.6321 34.3853C40.0926 34.4314 39.5824 34.6365 39.1743 34.9714C38.9822 35.125 38.812 35.3013 38.668 35.4959L39.1193 35.7816L39.1058 35.7825Z" fill="#442727"/>
<path d="M48.0718 35.5298C48.13 36.3224 47.6703 37 47.0441 37.0406C46.4179 37.0811 45.8636 36.4692 45.8054 35.6767C45.7473 34.8841 46.2069 34.2065 46.8331 34.1659C47.4594 34.1253 48.0135 34.7347 48.0718 35.5298Z" fill="#3F3B51"/>
<path d="M34.9196 37.826C35.5454 37.7854 36.0055 37.109 35.9473 36.3152C35.889 35.5214 35.3345 34.9108 34.7086 34.9513C34.0828 34.9919 33.6227 35.6683 33.6809 36.4621C33.7392 37.2559 34.2937 37.8665 34.9196 37.826Z" fill="#3F3B51"/>
<path d="M31.4075 32.2429C31.5634 32.0389 31.7512 31.8584 31.9647 31.7074C32.411 31.375 32.9539 31.1774 33.522 31.1405C34.2717 31.1144 35.0138 31.2892 35.6618 31.6445C35.7252 31.6757 35.7992 31.6821 35.8676 31.6623C35.936 31.6426 35.9934 31.5982 36.0272 31.5389C36.0442 31.5094 36.0548 31.477 36.0585 31.4436C36.0622 31.4103 36.0588 31.3765 36.0486 31.3444C36.0384 31.3122 36.0216 31.2823 35.999 31.2563C35.9765 31.2302 35.9488 31.2086 35.9174 31.1927C35.1787 30.7943 34.3356 30.5995 33.4846 30.6308C32.9848 30.6668 32.4994 30.8046 32.0619 31.0346C31.6244 31.2645 31.2454 31.5812 30.9511 31.9626C30.9116 32.0195 30.8977 32.0888 30.9125 32.1553C30.9274 32.2218 30.9697 32.2801 31.0302 32.3172C31.0908 32.3544 31.1645 32.3674 31.2353 32.3535C31.306 32.3395 31.368 32.2997 31.4075 32.2429V32.2429Z" fill="#3F3B51"/>
<path d="M48.1155 30.5288C47.9144 30.3711 47.6912 30.2399 47.4523 30.139C46.9216 29.8987 46.3339 29.7913 45.7461 29.8271C44.9626 29.8779 44.0487 30.1932 43.1112 31.04C43.0853 31.0632 43.0646 31.0909 43.0501 31.1217C43.0356 31.1524 43.0278 31.1855 43.027 31.2191C43.0261 31.2527 43.0324 31.2861 43.0453 31.3174C43.0582 31.3487 43.0776 31.3774 43.1023 31.4016C43.127 31.426 43.1565 31.4455 43.1892 31.4591C43.2219 31.4727 43.2571 31.48 43.2928 31.4808C43.3285 31.4816 43.3641 31.4757 43.3974 31.4636C43.4307 31.4514 43.4612 31.4332 43.487 31.41C44.3486 30.6423 45.1274 30.3793 45.7807 30.337C46.2754 30.3071 46.7699 30.3977 47.2164 30.5999C47.3588 30.6651 47.4948 30.7419 47.6228 30.8296C47.6686 30.8599 47.7057 30.8831 47.726 30.8997L47.7519 30.9185C47.7789 30.9408 47.8102 30.9578 47.8442 30.9686C47.8782 30.9794 47.9141 30.9837 47.9499 30.9814C47.9857 30.9791 48.0207 30.9701 48.0527 30.9551C48.0848 30.94 48.1134 30.9191 48.1369 30.8936C48.1839 30.8425 48.2075 30.7761 48.2025 30.7088C48.1976 30.6415 48.1645 30.5787 48.1105 30.5342L48.1155 30.5288Z" fill="#3F3B51"/>
<path d="M38.7489 47.7255C39.0334 48.4153 39.4781 48.8892 40.0141 49.0741C40.5622 49.297 41.1724 49.2556 41.7747 48.9547C42.0706 48.8136 42.3556 48.5741 42.6084 48.254C42.8613 47.934 43.0753 47.5417 43.2344 47.1068C43.247 47.0713 43.2555 47.0336 43.2592 46.9959C43.263 46.9581 43.2621 46.9211 43.2564 46.887C43.2508 46.8528 43.2405 46.8222 43.2263 46.7968C43.2121 46.7714 43.1942 46.7518 43.1735 46.739C43.1529 46.7262 43.13 46.7206 43.1061 46.7224C43.0823 46.7242 43.0579 46.7334 43.0343 46.7496C43.0108 46.7657 42.9887 46.7883 42.9691 46.8163C42.9495 46.8442 42.933 46.8769 42.9203 46.9125C42.789 47.2681 42.6089 47.4652 42.401 47.7255C42.193 47.9858 41.7715 48.2563 41.5289 48.3689C40.9967 48.6321 40.5596 48.5658 40.0755 48.3689C39.6138 48.2124 39.319 47.9567 39.0707 47.3677C39.061 47.3353 39.0466 47.3078 39.0284 47.287C39.0102 47.2661 38.9886 47.2524 38.9649 47.2467C38.9413 47.2409 38.9161 47.2433 38.891 47.2536C38.8659 47.2639 38.8413 47.2819 38.8189 47.3065C38.7965 47.3311 38.7766 47.3617 38.7607 47.3965C38.7447 47.4313 38.7329 47.4695 38.726 47.5087C38.7191 47.548 38.7173 47.5873 38.7206 47.6244C38.724 47.6615 38.7325 47.6954 38.7456 47.7242L38.7489 47.7255Z" fill="#E294A3"/>
<path d="M60.0751 33.1021C60.017 32.9866 59.9336 32.8839 59.8305 32.8007C59.7271 32.723 59.5987 32.6807 59.4664 32.6806C59.3278 32.6831 59.1929 32.723 59.0778 32.7956C58.8713 32.932 58.6958 33.1056 58.5615 33.3065C58.3151 33.6534 58.117 34.0286 57.9718 34.4228C57.8216 34.7915 57.7354 35.1805 57.7164 35.5749C57.7105 35.7519 57.7516 35.9274 57.8359 36.0858C57.8963 36.1861 57.9787 36.2732 58.0778 36.3412C58.1746 36.4064 58.2903 36.442 58.4093 36.4434C58.5032 36.4437 58.5959 36.4245 58.681 36.3872C58.8094 36.3268 58.9253 36.2455 59.0234 36.1471C59.211 35.9523 59.3717 35.736 59.5017 35.5033C59.524 35.4735 59.5394 35.4395 59.5466 35.4037C59.5538 35.3678 59.5527 35.3309 59.5435 35.2955C59.5343 35.2601 59.5171 35.2269 59.4931 35.1982C59.4691 35.1695 59.4388 35.146 59.4044 35.1293C59.3699 35.1125 59.332 35.1029 59.2932 35.1011C59.2545 35.0992 59.2157 35.1052 59.1796 35.1186C59.1436 35.132 59.1109 35.1526 59.084 35.1788C59.057 35.2051 59.0364 35.2365 59.0234 35.2709C58.9453 35.4076 58.8544 35.5376 58.7517 35.6592C58.6909 35.7365 58.6196 35.806 58.5397 35.8661C58.5074 35.8969 58.4656 35.9175 58.4202 35.9248H58.4039C58.3681 35.8981 58.3393 35.864 58.3196 35.8252C58.2833 35.7445 58.2665 35.6573 58.2707 35.5698C58.2813 35.3243 58.3261 35.0813 58.4039 34.8468C58.5332 34.4324 58.7215 34.0363 58.9637 33.6692C59.0552 33.5317 59.1647 33.4055 59.2897 33.2937C59.3275 33.2608 59.3695 33.2325 59.4147 33.2094C59.4339 33.1995 59.4554 33.1943 59.4772 33.1941H59.5044C59.5444 33.2301 59.5758 33.2736 59.5968 33.3218C59.6289 33.3828 59.6854 33.4293 59.7539 33.4511C59.8225 33.4729 59.8974 33.4682 59.9623 33.438C60.0272 33.4079 60.0766 33.3547 60.0998 33.2903C60.123 33.2259 60.118 33.1554 60.0859 33.0944L60.0751 33.1021Z" fill="#DB7979"/>
<path d="M18.7824 99.9999H13.8911C15.5732 90.7755 20.4129 74.7741 21.5243 76.0002C22.8314 77.4512 18.8449 91.1485 18.7824 99.9999Z" fill="#4F5F92"/>
<path d="M77.9428 99.9995H74.9536C73.7525 89.7584 70.2091 72.5155 70.902 71.7185C71.5379 71.0007 76.4074 90.9591 77.9428 99.9995Z" fill="#4F5F92"/>
<path d="M50.1047 40.0633C50.0072 40.2003 49.8918 40.324 49.7616 40.4312C49.5466 40.6062 49.2866 40.7185 49.0108 40.7556C48.9253 40.767 48.839 40.7721 48.7528 40.7709C48.7194 40.7718 48.6871 40.7831 48.6607 40.8033C48.6343 40.8235 48.615 40.8515 48.6057 40.8833C48.601 40.8971 48.5999 40.9118 48.6023 40.9262C48.6047 40.9405 48.6106 40.9541 48.6195 40.9657C48.6284 40.9772 48.64 40.9865 48.6534 40.9926C48.6667 40.9987 48.6813 41.0015 48.696 41.0008C48.7952 41.0036 48.8945 40.9976 48.9927 40.9829C49.3239 40.9388 49.636 40.8034 49.8932 40.5921C50.046 40.4673 50.1813 40.323 50.2957 40.1629C50.3055 40.152 50.3128 40.139 50.3172 40.125C50.3215 40.111 50.3227 40.0962 50.3208 40.0816C50.3188 40.0671 50.3137 40.0531 50.3058 40.0407C50.2979 40.0283 50.2874 40.0177 50.275 40.0097C50.2447 39.9979 50.2113 39.9968 50.1803 40.0066C50.1493 40.0164 50.1226 40.0364 50.1047 40.0633V40.0633Z" fill="#EF9A9A"/>
<path d="M34.7355 41.3609C34.5865 41.4403 34.4278 41.5004 34.2633 41.5397C33.9058 41.6179 33.5319 41.5681 33.208 41.3992C33.1773 41.3853 33.143 41.3816 33.11 41.3885C33.077 41.3954 33.0472 41.4126 33.0248 41.4375C33.0149 41.4479 33.0076 41.4604 33.0036 41.4742C32.9996 41.4879 32.9989 41.5023 33.0017 41.5163C33.0045 41.5303 33.0106 41.5435 33.0196 41.5547C33.0285 41.5658 33.04 41.5747 33.0532 41.5806C33.1411 41.6261 33.2326 41.6646 33.3267 41.6956C33.6437 41.8007 33.9841 41.8166 34.3097 41.7415C34.5017 41.6954 34.6872 41.6259 34.8619 41.5346C34.8757 41.5289 34.8881 41.5204 34.8984 41.5096C34.9086 41.4988 34.9165 41.486 34.9213 41.472C34.9262 41.458 34.928 41.4432 34.9267 41.4284C34.9253 41.4137 34.9208 41.3994 34.9135 41.3864C34.8914 41.3625 34.8615 41.3468 34.8291 41.3422C34.7966 41.3375 34.7635 41.3441 34.7355 41.3609Z" fill="#EF9A9A"/>
<path d="M40.7538 44.7847L34.8433 47.3033C34.8433 47.3033 38.7884 47.1765 40.1724 46.044C40.9115 45.4393 40.7538 44.7847 40.7538 44.7847Z" fill="#4D4D4D"/>
<path d="M41.6398 44.7847L47.5503 47.3033C47.5503 47.3033 43.6052 47.1765 42.2212 46.044C41.4821 45.4393 41.6398 44.7847 41.6398 44.7847Z" fill="#4D4D4D"/>
<path d="M55.4728 79.7867C55.4424 79.3852 55.7434 79.0351 56.1451 79.0047L67.2003 78.168C67.602 78.1376 67.9522 78.4384 67.9827 78.8399L68.7562 89.0493C68.7758 89.3086 68.6548 89.5602 68.4384 89.7045C63.9776 92.679 61.2741 92.8579 56.648 90.5987C56.4184 90.4866 56.2663 90.2593 56.247 90.0047L55.4728 79.7867Z" fill="#A5B6EE"/>
<path d="M67.8013 79.0773C60.2155 84.9823 56.1309 80.1271 55.8391 79.9521V79.4418L67.5824 78.567L67.8013 79.0773Z" fill="#95AAEE"/>
<ellipse cx="47.0134" cy="70.6937" rx="1.31292" ry="1.31223" fill="#A5B6EE"/>
<ellipse cx="47.7429" cy="95.6259" rx="1.31292" ry="1.31223" fill="#A5B6EE"/>
<ellipse cx="47.0134" cy="78.567" rx="1.31292" ry="1.31222" fill="#A5B6EE"/>
<ellipse cx="47.3051" cy="87.1694" rx="1.31292" ry="1.31222" fill="#A5B6EE"/>
<path d="M44.6744 65.6937L43.6533 65.7023L44.9711 100.009L46.0652 100L44.6744 65.6937Z" fill="#4F5F92"/>
<path d="M37.9283 58.4463C37.9283 58.4463 40.9549 62.9833 46.2839 63.8916C46.2839 63.8916 41.8322 70.0553 39.5112 71.3066C37.1902 72.5579 33.9919 63.3309 34.3493 61.1527C34.7068 58.9746 37.9283 58.4463 37.9283 58.4463Z" fill="#454E74"/>
<path d="M54.664 58.0089C54.664 58.0089 51.4172 62.9027 45.7004 63.8825C45.7004 63.8825 50.481 70.531 52.9659 71.8807C55.4508 73.2304 58.8918 63.2776 58.5084 60.9282C58.125 58.5787 54.664 58.0089 54.664 58.0089Z" fill="#454E74"/>
</svg>
