<svg width="124" height="100" viewBox="0 0 124 100" fill="none" xmlns="http://www.w3.org/2000/svg">
<path d="M62.1201 57.4868C56.6209 64.787 43.5766 63.6287 43.5766 63.6287L39.6672 63.0508L23.0836 64.1621L11.8141 60.0675C5.51482 50.5447 3.99536 48.7458 10.6622 44.1701C11.5222 43.5792 12.2077 42.4941 12.781 41.0638C16.6618 31.4261 15.4916 6.07137 28.3169 10.281C32.2263 4.61498 47.5693 4.5287 48.5467 16.4491C49.524 28.3695 60.2566 29.8494 57.8614 38.2818C57.7223 38.7681 57.6272 39.2661 57.5774 39.7696C56.8815 47.1535 67.2856 50.6336 62.1201 57.4868Z" fill="#4D4D4D"/>
<path d="M62.1201 57.4866C56.6209 64.7868 43.5766 63.6285 43.5766 63.6285L39.6672 63.0507L23.0836 64.1619L11.8141 60.0673C5.51482 50.5446 3.99536 48.7457 10.6622 44.17C11.5222 43.579 12.2077 42.4939 12.781 41.0637C18.6946 38.2947 20.2089 29.4963 24.1339 30.6467C28.8251 32.0247 39.7506 36.0252 45.4296 33.1804C50.2095 30.7853 52.5994 39.7433 57.5774 39.7694C56.8815 47.1533 67.2856 50.6335 62.1201 57.4866Z" fill="#333333"/>
<path d="M39.49 52.4821C39.2606 54.7177 38.4032 56.2368 35.9455 56.3806C29.766 56.7441 29.018 45.2447 28.992 44.842C28.992 44.842 29.0441 43.5608 29.0493 41.9083C29.0493 40.0126 29.0102 37.628 28.76 36.1298L39.6724 39.3014C39.4234 40.4769 39.2898 41.6741 39.2736 42.8757C39.1824 46.3507 39.7558 49.8962 39.49 52.4821Z" fill="#FCA897"/>
<path d="M39.6724 39.291C39.4234 40.4665 39.2898 41.6636 39.2736 42.8653C35.7317 44.0445 31.5331 44.6642 29.0493 41.8978C29.0493 40.0022 29.0102 37.6176 28.76 36.1194L39.6724 39.291Z" fill="#EF9181"/>
<path d="M45.6225 26.9393C46.076 25.0802 47.3739 25.4829 47.5172 27.3812C47.6606 29.2794 46.4044 33.8917 44.2959 31.1385" fill="#FCA897"/>
<path d="M45.805 27.7759C45.3932 32.6393 44.0405 37.9236 41.1736 40.4128C40.363 41.1419 39.3607 41.622 38.2859 41.7959C33.4956 42.5464 27.3996 37.9863 25.5153 33.2825C25.4736 33.1831 25.4371 33.0811 25.4006 32.9818C24.0975 34.2525 20.91 33.7165 20.4487 29.6454C19.9874 25.5744 22.9794 25.9064 23.743 27.0752C24.3086 28.9787 25.4397 31.7816 25.7394 30.9972C25.9531 30.4351 25.7602 28.4479 25.643 27.1301C25.6007 26.7559 25.5772 26.3798 25.5726 26.0032C25.6065 25.3704 37.9158 27.8073 42.3751 17.0243C42.495 19.5867 43.4385 21.6889 44.3038 23.48C45.1039 25.1455 45.8414 26.5392 45.805 27.7759Z" fill="#FCC3B4"/>
<path d="M22.3173 29.9252V29.8991C22.3076 29.7755 22.3291 29.6513 22.3799 29.5383L22.4007 29.5121C22.445 29.5206 22.4863 29.5404 22.5206 29.5696C22.6679 29.6924 22.7855 29.8471 22.8646 30.022C22.9958 30.2951 23.0837 30.5871 23.1253 30.8875C23.1448 30.9962 23.1552 31.1064 23.1565 31.2169C23.1605 31.2648 23.1605 31.3129 23.1565 31.3607L23.1305 31.4052L23.1826 31.4418L23.1565 31.3869L23.1305 31.4052L23.1826 31.4418L23.1565 31.3869L23.1878 31.4522L23.1722 31.3816H23.1565L23.1878 31.447L23.1722 31.3764V31.4025V31.3738V31.3999V31.3712C23.1294 31.3655 23.0885 31.3503 23.0523 31.3267C22.9425 31.2636 22.8402 31.1882 22.7474 31.1019L22.6379 30.9999L22.6092 30.9711C22.5615 30.9208 22.4959 30.8916 22.4267 30.8899C22.3576 30.8882 22.2906 30.9141 22.2405 30.962C22.1903 31.0098 22.1612 31.0757 22.1595 31.1451C22.1578 31.2144 22.1836 31.2817 22.2313 31.3319C22.3252 31.4248 22.4244 31.5121 22.5284 31.5934C22.6176 31.6677 22.7136 31.7334 22.8151 31.7895C22.9269 31.8552 23.0532 31.8921 23.1826 31.8967C23.2568 31.8972 23.33 31.8802 23.3963 31.847C23.5015 31.791 23.5823 31.6978 23.6231 31.5856C23.6648 31.4682 23.6843 31.3441 23.6804 31.2195C23.6795 31.0819 23.6673 30.9446 23.6439 30.809C23.5826 30.3547 23.4234 29.9193 23.1774 29.533C23.084 29.388 22.9668 29.2598 22.8308 29.1539C22.7074 29.0551 22.5558 28.9983 22.3981 28.9918C22.3014 28.992 22.2067 29.0191 22.1245 29.0702C22.0015 29.1516 21.9096 29.2723 21.8639 29.4128C21.8129 29.5706 21.7891 29.7359 21.7935 29.9017V29.9357C21.7935 30.005 21.8209 30.0716 21.8698 30.1206C21.9187 30.1696 21.985 30.1972 22.0541 30.1972C22.1232 30.1972 22.1895 30.1696 22.2384 30.1206C22.2873 30.0716 22.3147 30.005 22.3147 29.9357L22.3173 29.9252Z" fill="#E56E61"/>
<path d="M31.5593 29.648C31.5593 30.2259 31.2335 30.6939 30.8295 30.6939C30.4256 30.6939 30.0972 30.2259 30.0972 29.648C30.0972 29.0702 30.4229 28.6021 30.8295 28.6021C31.2361 28.6021 31.5593 29.0702 31.5593 29.648Z" fill="#3F3B51"/>
<path d="M41.5905 30.4324C41.995 30.4324 42.3229 29.9641 42.3229 29.3865C42.3229 28.8089 41.995 28.3406 41.5905 28.3406C41.186 28.3406 40.8582 28.8089 40.8582 29.3865C40.8582 29.9641 41.186 30.4324 41.5905 30.4324Z" fill="#3F3B51"/>
<path d="M37.0166 30.409C37.0166 30.4744 37.0166 30.5397 37.0166 30.6025C37.0458 31.1909 37.1986 31.7665 37.4649 32.2916C37.5743 32.5321 37.6786 32.7518 37.7516 32.9426C37.8171 33.0889 37.8568 33.2455 37.8688 33.4054C37.8717 33.4315 37.8717 33.4578 37.8688 33.4839C37.841 33.5963 37.7734 33.6948 37.6786 33.761C37.4792 33.9007 37.2556 34.0018 37.0192 34.0591C36.9071 34.0905 36.8081 34.1114 36.7377 34.1245H36.6543H36.6283C36.594 34.1288 36.561 34.1398 36.531 34.1569C36.501 34.174 36.4747 34.1968 36.4535 34.2242C36.4323 34.2515 36.4167 34.2827 36.4076 34.3161C36.3985 34.3494 36.3959 34.3843 36.4002 34.4186C36.4045 34.453 36.4155 34.4861 36.4325 34.5162C36.4496 34.5463 36.4724 34.5727 36.4996 34.5939C36.5268 34.6152 36.558 34.6308 36.5912 34.64C36.6245 34.6492 36.6592 34.6517 36.6934 34.6474C36.9457 34.6107 37.1937 34.5485 37.4336 34.4618C37.6379 34.3906 37.8297 34.2873 38.0018 34.1558C38.1947 34.0134 38.3291 33.8051 38.3797 33.5701C38.392 33.5117 38.3982 33.4521 38.3979 33.3924C38.3869 33.1672 38.3356 32.9458 38.2468 32.7387C38.119 32.4118 37.9392 32.0693 37.7959 31.7085C37.6392 31.3554 37.5508 30.9756 37.5353 30.5894C37.5353 30.5397 37.5353 30.4874 37.5353 30.4351C37.5404 30.3658 37.5179 30.2972 37.4727 30.2445C37.4275 30.1918 37.3633 30.1593 37.2942 30.1541C37.225 30.1489 37.1567 30.1714 37.1041 30.2168C37.0516 30.2621 37.0192 30.3266 37.014 30.3959L37.0166 30.409Z" fill="#E56E61"/>
<path d="M34.6112 36.5534C35.2002 36.9812 35.9091 37.211 36.6363 37.2097C37.0021 37.2167 37.3653 37.1463 37.7022 37.0032C38.013 36.8768 38.2676 36.6418 38.4189 36.3416C38.4333 36.3104 38.4414 36.2766 38.4428 36.2422C38.4441 36.2078 38.4387 36.1735 38.4269 36.1412C38.415 36.1089 38.3969 36.0793 38.3736 36.054C38.3504 36.0287 38.3224 36.0083 38.2912 35.9939C38.2601 35.9795 38.2264 35.9713 38.1921 35.97C38.1579 35.9686 38.1236 35.974 38.0915 35.9859C38.0593 35.9978 38.0297 36.016 38.0045 36.0393C37.9793 36.0627 37.959 36.0907 37.9446 36.122C37.8472 36.308 37.6848 36.4514 37.4885 36.5247C37.2192 36.6392 36.9286 36.6945 36.6363 36.6868C36.0207 36.688 35.4204 36.494 34.9213 36.1325C34.8657 36.0912 34.796 36.0738 34.7276 36.0841C34.6591 36.0944 34.5976 36.1315 34.5565 36.1874C34.5153 36.2432 34.498 36.3131 34.5083 36.3818C34.5185 36.4504 34.5556 36.5122 34.6112 36.5534V36.5534Z" fill="#FC4F88"/>
<path d="M39.4899 52.4822C39.2606 54.7177 38.4031 56.2369 35.9454 56.3807C29.766 56.7441 29.018 45.2447 28.9919 44.842C30.2951 50.5368 32.1194 53.4418 35.5076 54.0771C37.5509 54.4589 38.7341 53.7634 39.4899 52.4822Z" fill="#F26B98"/>
<path d="M21.9395 47.3548C21.9395 47.3548 15.33 54.7544 14.1624 61.1394C12.9948 67.5245 10.4694 86.0157 13 89.3782C15.5307 92.7407 18.4393 92.7433 19.1951 92.7433C19.9509 92.7433 55.9433 95.0965 55.7426 89.7181C55.5419 84.3396 52.06 48.8791 52.06 48.8791C49.7873 47.3469 46.4435 45.6604 42.4716 45.8513C39.4952 45.9951 37.9992 47.0933 35.1193 47.8777C32.1716 48.6621 27.8427 49.1092 21.9395 47.3548Z" fill="#35324B"/>
<path d="M56.5299 56.1193C54.7055 52.8901 53.0375 49.9957 52.0315 48.2752C51.7162 47.7378 51.2939 47.2714 50.7909 46.9051C50.2341 46.6049 49.6576 46.3429 49.0656 46.1207C43.165 43.8799 40.3034 47.3966 33.5558 47.109C27.5119 46.8476 25.0333 43.8224 20.4672 45.7337C19.2865 46.2279 18.3379 46.7299 17.8609 47.3339C11.9889 52.5 -1.44206 78.3507 1.9982 80.5C4.667 82.1708 5.62974 81.5001 5.62974 81.5001C5.62974 81.5001 10.2272 74.477 10.2272 73.9646C10.2272 73.6377 14.749 66.0839 18.132 60.2531C16.8288 72.2206 16.2607 83.6494 16.2607 83.6494H51.1975C51.1975 83.6494 51.2548 74.8562 50.1785 63.3777C50.5548 64.5209 51.0328 65.6279 51.6067 66.6852" fill="#F0F0F0"/>
<path d="M56.4471 56.5C60.4902 67.3152 64.7885 85.0976 62.0278 84.5392C55.4589 83.2135 54.3597 81.5009 54.3597 81.5009C54.3597 81.5009 54.3829 76.4619 53.4108 73.7199C53.0428 72.6807 50.4989 67.0462 49.1024 61.252C52.4223 60.9822 55.3122 57.7856 56.4471 56.5Z" fill="#FCC3B4"/>
<path d="M16.2291 83.6624H51.1973L55.448 100H13.9868L16.2291 83.6624Z" fill="#8DBEE4"/>
<path d="M50.6213 76.9741C48.5754 75.638 45.0596 61.3748 44.3663 59.1471C42.9068 54.4406 42.3126 48.6543 42.3595 43.7465C44.1526 43.0745 46.1386 43.6001 47.9343 44.2459C49.8082 50.7827 53.2484 69.3915 53.0113 76.1609C52.3312 76.6991 51.4874 76.9862 50.6213 76.9741Z" fill="#5D5A77"/>
<path d="M43.9389 59.0032L41.4917 56.9585L24.1262 54.8092L19.9041 77.8447L38.0697 79.9365L43.9389 59.0032Z" fill="#00B398"/>
<path d="M43.097 59.4085C43.097 59.4085 41.6662 57.7612 41.4942 57.7612C41.3221 57.7612 24.7203 55.5597 24.7203 55.5597L20.7666 77.3976L22.9011 78.9926L39.5186 80.0385L43.097 59.4085Z" fill="white"/>
<path d="M22.1455 79.3271L40.4623 81.7797L43.9468 58.99L25.6301 56.5401L22.1455 79.3271Z" fill="#00B398"/>
<path d="M47.4755 62.6611L45.0205 60.6217L27.6576 58.4672L23.4407 81.5053L41.6011 83.597L47.4755 62.6611Z" fill="#F05D5C"/>
<path d="M46.6207 63.0664C46.6207 63.0664 45.1925 61.4192 45.0205 61.4192C44.8485 61.4192 28.2467 59.2202 28.2467 59.2202L24.293 81.0608L26.4327 82.661L43.0424 83.7068L46.6207 63.0664Z" fill="white"/>
<path d="M25.6794 82.9878L43.9962 85.4404L47.4808 62.6507L29.164 60.2007L25.6794 82.9878Z" fill="#F05D5C"/>
<path d="M9.53766 59C4.31868 69.024 -1.89526 82.0873 0.548164 83.1587C3.29512 84.385 8.54584 83.9091 8.54584 83.9091C8.54584 83.9091 11.8419 76.3766 11.7674 75.8765C11.7294 75.6214 13.9098 69.9642 15.985 64.5093C12.8758 63.7595 10.4386 60.409 9.53766 59Z" fill="#FCC3B4"/>
<path d="M15.6114 76.9741C17.66 75.6379 21.1758 61.3748 21.8665 59.1471C23.3312 54.4406 23.9254 48.6543 23.8733 43.7465C22.088 43.0745 20.0994 43.6001 18.2985 44.2459C16.4116 50.8062 12.9895 69.3914 13.2241 76.1609C13.9032 76.6989 14.7462 76.986 15.6114 76.9741Z" fill="#5D5A77"/>
<path d="M36.1571 72.5415C36.1571 72.5415 7.31455 74.5835 6.31947 76.9974C4.37965 81.6905 5.07593 83.5987 8.3087 84.1397C11.5415 84.6808 38.7402 75.9563 38.7402 75.9563L36.1571 72.5415Z" fill="#FCC3B4"/>
<path d="M36.2346 59.25C36.2346 59.25 60.7301 74.387 60.3912 76.9362C59.7197 81.8864 58.1398 83.24 55.005 82.1785C51.8703 81.1171 32.2174 61.0246 32.2174 61.0246L36.2346 59.25Z" fill="#FCC3B4"/>
<path d="M33.8116 72.4319C33.8116 72.4319 37.3493 71.4334 38.2915 71.4037C39.2337 71.3739 39.031 72.3473 39.031 72.3473C39.031 72.3473 41.6412 71.5244 42.4805 72.823C43.5923 74.553 41.5177 78.5287 35.1925 77.11L33.8116 72.4319Z" fill="#FCC3B4"/>
<path d="M38.0327 59.9689C38.0327 59.9689 35.2724 57.5621 34.455 57.1576C33.6376 56.7531 33.3429 57.6882 33.3429 57.6882C33.3429 57.6882 31.3601 55.846 30.0042 56.6445C28.1924 57.7099 28.2456 62.1056 34.6161 63.5572L38.0327 59.9689Z" fill="#FCC3B4"/>
<path d="M29.4404 44.2328C29.4404 44.2328 31.1397 46.7926 34.1317 47.3051C34.1317 47.3051 31.6323 50.7827 30.3292 51.4886C29.026 52.1946 27.2303 46.9887 27.431 45.7598C27.6317 44.5309 29.4404 44.2328 29.4404 44.2328Z" fill="#DADADA"/>
<path d="M38.8436 44.2328C38.8436 44.2328 37.1443 46.7926 34.1523 47.3051C34.1523 47.3051 36.6544 50.7827 37.9549 51.4886C39.2554 52.1946 41.0563 46.9887 40.8556 45.7598C40.655 44.5309 38.8436 44.2328 38.8436 44.2328Z" fill="#DADADA"/>
<path d="M29.5315 26.9419C29.6631 26.842 29.8036 26.7545 29.9511 26.6804C30.2361 26.5297 30.5517 26.4465 30.8737 26.4372C31.0838 26.4383 31.2913 26.483 31.4833 26.5685C31.6753 26.654 31.8475 26.7785 31.9892 26.934C32.038 26.9827 32.1041 27.01 32.173 27.01C32.2418 27.01 32.3079 26.9827 32.3567 26.934C32.3811 26.9097 32.4005 26.8808 32.4137 26.8489C32.427 26.8171 32.4338 26.7829 32.4338 26.7484C32.4338 26.7139 32.427 26.6797 32.4137 26.6478C32.4005 26.616 32.3811 26.587 32.3567 26.5627C32.166 26.3598 31.9362 26.1977 31.6814 26.0863C31.4265 25.9748 31.1518 25.9163 30.8737 25.9143C30.4579 25.9219 30.0502 26.0305 29.6853 26.2307C29.5114 26.3197 29.3472 26.4266 29.1953 26.5497C29.1661 26.5707 29.1416 26.5977 29.1232 26.6287C29.1049 26.6598 29.0932 26.6943 29.0888 26.7302C29.0845 26.766 29.0876 26.8023 29.0979 26.8369C29.1082 26.8715 29.1255 26.9035 29.1488 26.9311C29.1721 26.9586 29.2008 26.981 29.2332 26.9968C29.2655 27.0127 29.3007 27.0216 29.3367 27.0231C29.3726 27.0246 29.4085 27.0186 29.442 27.0056C29.4756 26.9925 29.506 26.9726 29.5315 26.9471V26.9419Z" fill="#3F3B51"/>
<path d="M40.0712 26.4215C40.2028 26.3217 40.3433 26.2341 40.4908 26.16C40.7758 26.0093 41.0914 25.9261 41.4135 25.9169C41.6235 25.918 41.831 25.9627 42.023 26.0482C42.215 26.1337 42.3872 26.2581 42.5289 26.4137C42.578 26.4629 42.6446 26.4906 42.714 26.4906C42.7834 26.4906 42.8499 26.4629 42.899 26.4137C42.9481 26.3644 42.9757 26.2976 42.9757 26.228C42.9757 26.1584 42.9481 26.0916 42.899 26.0424C42.708 25.8391 42.4778 25.6769 42.2225 25.5654C41.9671 25.4539 41.6919 25.3956 41.4135 25.3939C40.9977 25.4016 40.5899 25.5101 40.225 25.7103C40.0511 25.7993 39.8869 25.9062 39.735 26.0293C39.6821 26.074 39.6491 26.138 39.6433 26.2071C39.6374 26.2763 39.6592 26.3449 39.7038 26.398C39.7483 26.451 39.8121 26.4841 39.881 26.49C39.9499 26.4959 40.0183 26.4741 40.0712 26.4293V26.4215Z" fill="#3F3B51"/>
<path d="M108.428 29.9775C105.342 33.7584 99.8795 39.746 97.2707 36.9901L83.0327 27.1144C81.0259 24.9704 78.4144 20.3162 77.3276 15.5522C76.2668 10.8955 76.6604 6.13934 80.4916 3.50634C87.5441 -1.33085 92.4387 4.01097 93.2622 5.01502C92.681 4.27506 90.3432 1.14788 91.2476 0.1726C92.2771 -0.94126 94.177 3.66583 99.559 5.25295C103.01 6.27269 106.296 8.46642 107.988 11.7897C109.016 13.8417 109.402 16.1576 109.095 18.4336C111.91 20.0234 111.514 26.1967 108.428 29.9775Z" fill="#4D4D4D"/>
<path d="M108.428 29.9775C105.342 33.7584 99.8793 39.746 97.2704 36.9902L83.0325 27.1144C81.0257 24.9704 78.4142 20.3162 77.3274 15.5523C81.7137 15.6595 85.928 13.0814 87.1373 13.7769C88.563 14.6031 97.0411 18.4467 100.612 18.8468C104.182 19.2468 104.649 16.4491 105.183 17.5813C105.6 18.4624 108.245 15.9131 107.993 11.7897C109.021 13.8418 109.407 16.1576 109.1 18.4336C111.91 20.0234 111.514 26.1967 108.428 29.9775Z" fill="#333333"/>
<path d="M83.0327 26.0032C81.8416 24.9573 80.893 26.8739 81.7765 29.6376C82.66 32.4014 84.0517 30.7986 83.6973 28.9395L83.0327 26.0032Z" fill="#FCA897"/>
<path d="M99.3165 43.7125C99.34 44.2355 99.3582 44.6198 99.3661 44.8525C99.426 46.3429 96.5774 50.0349 93.6688 50.0349C90.7602 50.0349 89.5718 47.2947 88.9775 45.6866C88.8562 45.3156 88.7989 44.9265 88.8081 44.5362C88.7899 43.7073 88.9124 42.6771 88.9306 41.4874C88.9833 39.907 88.7575 38.3296 88.2634 36.828L99.3635 33.4289C99.1341 34.2918 99.1028 36.6476 99.1576 39.0165C99.194 40.771 99.2644 42.5411 99.3165 43.7125Z" fill="#FCA897"/>
<path d="M99.1602 39.0061C95.1831 44.042 91.9044 43.7125 88.9333 41.4874C88.986 39.907 88.7602 38.3297 88.2661 36.828L99.3661 33.4289C99.1368 34.2813 99.1159 36.6345 99.1602 39.0061Z" fill="#EF9181"/>
<path d="M102.986 30.6809C102.256 32.8467 100.939 34.7659 99.1838 36.224C98.1581 37.0952 97.0081 37.8073 95.7722 38.3367C93.0903 39.4846 90.299 39.5944 88.446 38.3864C85.8814 36.713 84.4506 34.0408 83.6661 30.8404C83.2323 28.9686 82.9645 27.0621 82.866 25.1429C82.866 25.1429 83.6713 23.5741 84.6903 21.1817C85.4227 19.4612 86.2541 17.3067 87.0125 14.9822C90.8098 22.2093 102.624 24.1023 102.624 24.1023C102.624 24.1023 102.363 28.1211 102.653 28.0897C102.942 28.0583 104.284 25.4096 104.284 25.4096C104.284 25.4096 106.601 24.9651 107.193 27.0203C107.784 29.0755 105.538 32.1111 102.986 30.6809Z" fill="#FCC3B4"/>
<path d="M91.4375 27.2792C91.463 27.4128 91.476 27.5484 91.4766 27.6844C91.4545 28.1523 91.3318 28.6099 91.117 29.0258C91.0205 29.235 90.9241 29.4389 90.8563 29.6481C90.7722 29.8542 90.7263 30.0739 90.7208 30.2965C90.7186 30.4544 90.7488 30.611 90.8094 30.7567C90.8974 30.9687 91.033 31.1575 91.2056 31.3084C91.4208 31.4913 91.6763 31.6204 91.951 31.6849C92.1345 31.7293 92.3225 31.7521 92.5113 31.7529C92.5451 31.7561 92.5792 31.7561 92.613 31.7529C92.6821 31.7477 92.7463 31.7152 92.7915 31.6625C92.8367 31.6097 92.8592 31.5412 92.854 31.4718C92.8489 31.4025 92.8164 31.338 92.7639 31.2927C92.7113 31.2473 92.643 31.2248 92.5739 31.23V31.3189V31.23V31.3189V31.23H92.5113C92.3004 31.2294 92.0913 31.1914 91.8936 31.1175C91.7675 31.0712 91.6509 31.0021 91.5496 30.9136C91.4349 30.8163 91.3455 30.6924 91.289 30.5528C91.2536 30.4703 91.2367 30.381 91.2395 30.2913C91.2452 30.1313 91.2796 29.9736 91.3411 29.8259C91.4401 29.5644 91.6017 29.2506 91.7451 28.8977C91.9096 28.5122 91.9981 28.0984 92.0057 27.6792C92.0055 27.5107 91.9889 27.3425 91.9562 27.1772C91.9498 27.1429 91.9369 27.1101 91.9179 27.0808C91.899 27.0515 91.8744 27.0263 91.8457 27.0065C91.8171 26.9867 91.7848 26.9728 91.7507 26.9655C91.7167 26.9582 91.6816 26.9577 91.6474 26.9641C91.6131 26.9704 91.5805 26.9835 91.5513 27.0025C91.5221 27.0215 91.4969 27.0461 91.4772 27.0749C91.4575 27.1037 91.4436 27.136 91.4363 27.1702C91.4291 27.2043 91.4286 27.2396 91.4349 27.2739L91.4375 27.2792Z" fill="#E56E61"/>
<path d="M98.2767 26.9914C98.2767 27.6268 97.9222 28.1419 97.4948 28.1419C97.0673 28.1419 96.7129 27.619 96.7129 26.9914C96.7129 26.3639 97.0673 25.841 97.4948 25.841C97.9222 25.841 98.2767 26.3561 98.2767 26.9914Z" fill="#3F3B51"/>
<path d="M87.4163 26.7301C87.4163 27.3655 87.0618 27.8805 86.6344 27.8805C86.207 27.8805 85.8525 27.3576 85.8525 26.7301C85.8525 26.1026 86.207 25.5796 86.6344 25.5796C87.0618 25.5796 87.4163 26.0947 87.4163 26.7301Z" fill="#3F3B51"/>
<path d="M85.4458 23.8722C85.5774 23.7724 85.7179 23.6849 85.8654 23.6107C86.1501 23.4592 86.4659 23.376 86.788 23.3676C86.9981 23.3687 87.2056 23.4134 87.3976 23.4989C87.5895 23.5844 87.7618 23.7088 87.9035 23.8644C87.9278 23.8887 87.9566 23.9081 87.9884 23.9213C88.0201 23.9345 88.0542 23.9413 88.0885 23.9413C88.1229 23.9413 88.1569 23.9345 88.1887 23.9213C88.2204 23.9081 88.2493 23.8887 88.2736 23.8644C88.2979 23.84 88.3171 23.811 88.3303 23.7792C88.3434 23.7473 88.3502 23.7132 88.3502 23.6787C88.3502 23.6442 88.3434 23.6101 88.3303 23.5783C88.3171 23.5464 88.2979 23.5175 88.2736 23.4931C88.0823 23.2901 87.8522 23.128 87.5969 23.0165C87.3416 22.9051 87.0664 22.8466 86.788 22.8446C86.3722 22.8523 85.9644 22.9608 85.5996 23.161C85.425 23.2489 85.2608 23.3559 85.1096 23.48C85.0804 23.5011 85.0559 23.528 85.0375 23.5591C85.0192 23.5901 85.0075 23.6247 85.0031 23.6605C84.9988 23.6963 85.0019 23.7327 85.0122 23.7673C85.0225 23.8018 85.0399 23.8339 85.0631 23.8614C85.0864 23.8889 85.1151 23.9113 85.1475 23.9272C85.1798 23.943 85.215 23.952 85.251 23.9535C85.2869 23.955 85.3228 23.949 85.3563 23.9359C85.3898 23.9228 85.4203 23.9029 85.4458 23.8774V23.8722Z" fill="#3F3B51"/>
<path d="M96.249 24.1336C96.3795 24.0335 96.5191 23.9459 96.666 23.8722C96.9507 23.7207 97.2665 23.6374 97.5886 23.629C97.7987 23.6299 98.0063 23.6746 98.1983 23.7601C98.3903 23.8456 98.5625 23.9701 98.7041 24.1258C98.7284 24.1502 98.7573 24.1695 98.789 24.1827C98.8208 24.1959 98.8548 24.2027 98.8892 24.2027C98.9235 24.2027 98.9575 24.1959 98.9893 24.1827C99.021 24.1695 99.0499 24.1502 99.0742 24.1258C99.0985 24.1014 99.1178 24.0725 99.1309 24.0406C99.1441 24.0088 99.1508 23.9746 99.1508 23.9401C99.1508 23.9057 99.1441 23.8715 99.1309 23.8397C99.1178 23.8078 99.0985 23.7789 99.0742 23.7545C98.8832 23.5512 98.653 23.389 98.3977 23.2775C98.1423 23.1661 97.8671 23.1077 97.5886 23.106C97.1736 23.1137 96.7667 23.2223 96.4028 23.4224C96.2283 23.5103 96.0639 23.6173 95.9128 23.7414C95.8836 23.7625 95.8591 23.7894 95.8408 23.8205C95.8224 23.8516 95.8107 23.8861 95.8064 23.9219C95.802 23.9578 95.8051 23.9941 95.8154 24.0287C95.8257 24.0633 95.8431 24.0953 95.8663 24.1228C95.8896 24.1504 95.9184 24.1727 95.9507 24.1886C95.983 24.2044 96.0183 24.2134 96.0542 24.2149C96.0902 24.2164 96.126 24.2104 96.1595 24.1973C96.1931 24.1842 96.2236 24.1643 96.249 24.1389V24.1336Z" fill="#3F3B51"/>
<path d="M105.749 26.798C105.651 26.7033 105.52 26.6508 105.384 26.6516C105.275 26.6525 105.168 26.6813 105.074 26.7353C104.909 26.8297 104.764 26.9549 104.646 27.104C104.444 27.3542 104.277 27.6314 104.151 27.9276C104.021 28.2077 103.948 28.5106 103.935 28.8192C103.924 29.007 103.98 29.1926 104.094 29.3421V29.3421C104.156 29.4211 104.234 29.4861 104.323 29.533C104.405 29.572 104.493 29.5934 104.584 29.5958C104.733 29.5911 104.878 29.545 105.003 29.4624C105.156 29.3582 105.292 29.2312 105.407 29.0859C105.504 28.9682 105.564 28.8741 105.569 28.8689C105.587 28.8399 105.6 28.8075 105.605 28.7737C105.611 28.7398 105.61 28.7052 105.603 28.6717C105.595 28.6382 105.581 28.6065 105.562 28.5784C105.542 28.5503 105.517 28.5264 105.488 28.5081C105.459 28.4897 105.427 28.4772 105.393 28.4713C105.359 28.4655 105.325 28.4663 105.292 28.4738C105.258 28.4814 105.227 28.4954 105.199 28.5152C105.171 28.535 105.147 28.5601 105.128 28.5891C105.062 28.6822 104.988 28.7697 104.907 28.8506C104.851 28.9119 104.787 28.9655 104.717 29.0101C104.678 29.0396 104.632 29.0569 104.584 29.0598H104.545C104.52 29.0444 104.498 29.0249 104.479 29.0022V29.0022C104.45 28.9487 104.438 28.8878 104.443 28.827C104.451 28.6552 104.486 28.4858 104.547 28.325C104.651 28.0293 104.799 27.7515 104.988 27.5014C105.063 27.4033 105.151 27.3154 105.248 27.2399C105.285 27.2057 105.332 27.183 105.381 27.1746C105.405 27.1991 105.434 27.2185 105.466 27.2318C105.498 27.2451 105.532 27.2519 105.566 27.2519C105.601 27.2519 105.635 27.2451 105.667 27.2318C105.698 27.2185 105.727 27.1991 105.751 27.1746C105.8 27.1256 105.827 27.0593 105.827 26.9902C105.827 26.9211 105.8 26.8549 105.751 26.8059L105.749 26.798Z" fill="#E56E61"/>
<path d="M90.9375 33.978C92.0775 33.9452 93.1987 33.6782 94.2318 33.1935C94.2318 33.1935 94.2917 34.5349 93.1033 34.8905C91.9148 35.2461 90.9375 33.978 90.9375 33.978Z" fill="white"/>
<path d="M99.3663 44.8525C99.4262 46.3428 96.5776 50.0348 93.669 50.0348C90.7604 50.0348 89.572 47.2946 88.9777 45.6866C88.8564 45.3155 88.7991 44.9265 88.8083 44.5361C91.5762 48.6281 94.2424 50.2309 99.3142 43.7125C99.3402 44.2171 99.3584 44.6198 99.3663 44.8525Z" fill="#EF9181"/>
<path d="M82.952 46.2251C82.952 46.2251 76.3425 53.6221 75.1749 60.0098C74.0073 66.3975 71.4818 84.8834 74.0125 88.2486C76.5432 91.6137 79.4544 91.6084 80.205 91.6084C80.9556 91.6084 116.953 93.9617 116.755 88.5832C116.557 83.2048 113.062 47.7443 113.062 47.7443C109.624 45.5636 106.419 44.7034 103.474 44.7112C99.6163 44.7112 97.7894 46.2173 93.2388 46.837C89.8021 47.2866 86.3116 47.079 82.952 46.2251Z" fill="#35324B"/>
<path d="M124 87C123.706 82.8034 119.838 54.4432 119.838 54.4432L110.536 57.7142L117.557 100H124V87Z" fill="#FCC3B4"/>
<path d="M110.88 43.5478C110.325 43.4249 107.492 42.2274 103.723 42.4653C100.732 42.6685 97.8418 43.6312 95.3235 45.263C90.4159 45.8592 88.6358 45.0016 88.026 43.9557C87.6403 43.2889 87.8045 42.6797 87.3458 42.3503C85.9827 41.375 81.612 44.5675 80.8119 45.8174C77.9841 50.2257 76.522 86.1229 76.522 86.1229H112.228C112.228 86.1229 111.928 43.7857 110.88 43.5478Z" fill="#F0F0F0"/>
<path d="M76.0279 45C76.0279 45 64.2985 69.084 63.6573 74.5512C63.0162 80.0183 62.7714 81.6834 67.2012 82.6554C72.0774 83.7368 73.7714 78.249 74.0229 74.5441C74.445 68.5913 76.6491 58.8795 76.7526 58.115C76.9078 57.0004 76.0279 45 76.0279 45Z" fill="#ECB1A0"/>
<path d="M70.1262 56.4408L78.6096 66.361L86.7854 42.5515C86.7854 42.5515 77.7 42.5515 75.7297 45.5297C74.106 48.0084 70.9316 52.0612 70.1262 56.4408Z" fill="#F0F0F0"/>
<path d="M76.6213 75.8183C78.6724 74.4822 82.1883 60.219 82.8763 57.9913C84.3384 53.2849 84.9301 47.5012 84.8831 42.5934C83.0953 41.9214 81.1041 42.447 79.3058 43.0928C77.4397 49.6295 73.9994 68.2383 74.2314 75.0078C74.9105 75.5473 75.7552 75.8338 76.6213 75.8183V75.8183Z" fill="#5D5A77"/>
<path d="M73.7878 60.2202L64.2471 75.6883C64.2471 75.6883 60.3717 83.4481 66.0095 84.733C70.0703 85.6596 72.3451 81.4311 73.8086 78.8209C74.0658 78.3581 77.1352 61.7962 77.1352 61.7962L73.7878 60.2202Z" fill="#FCC3B4"/>
<path d="M121.287 56.7206L112.804 66.6355L104.623 42.8418C104.623 42.8418 113.714 42.8418 115.681 45.8199C117.308 48.2646 120.482 52.3227 121.287 56.7206Z" fill="#F0F0F0"/>
<path d="M111.631 75.8183C109.588 74.4822 106.069 60.219 105.376 57.9913C103.916 53.2849 103.32 47.5012 103.369 42.5934C105.16 41.9214 107.148 42.447 108.944 43.0928C110.815 49.6295 114.258 68.2383 114.018 75.0078C113.34 75.5471 112.496 75.8336 111.631 75.8183V75.8183Z" fill="#5D5A77"/>
<path d="M72.3093 61.8063C72.3093 61.8063 73.9976 58.7158 74.6269 58.0617C75.2562 57.4077 75.8887 58.2006 75.8887 58.2006C75.8887 58.2006 77.0687 55.8812 78.6636 56.1819C80.784 56.5939 82.439 60.6706 76.934 64.0284L72.3093 61.8063Z" fill="#FCC3B4"/>
<path d="M87.9246 41.8325C87.9246 41.8325 89.9522 44.6198 93.528 45.1793C93.528 45.1793 90.549 48.968 88.9957 49.7472C87.4424 50.5264 85.3027 44.8447 85.5424 43.5033C85.7822 42.162 87.9246 41.8325 87.9246 41.8325Z" fill="#DADADA"/>
<path d="M100.562 41.4978C100.562 41.4978 96.03 44.9545 93.5098 45.1793C93.5098 45.1793 94.9197 49.5275 96.1343 49.972C97.3488 50.4165 102.09 45.399 102.686 43.838C103.283 42.277 100.562 41.4978 100.562 41.4978Z" fill="#DADADA"/>
<path d="M95.5846 92.0661H94.5421L93.9224 100H77.4226L76.3218 83.7959L112.179 83.7932L112.528 100H96.7916C96.3982 97.3338 95.9957 94.6891 95.5846 92.0661Z" fill="#3A6CB6"/>
<path d="M77.0201 91.7053L77.0982 91.6765C78.7634 91.1142 80.2031 90.0274 81.2031 88.5781C82.164 87.1756 82.6065 85.4804 82.4541 83.7853H76.4597L77.0201 91.7053Z" fill="#2F5A99"/>
<path d="M112.145 83.7853H104.73L106.108 87.7728C106.669 89.3741 107.661 90.7879 108.975 91.8569C110.119 92.7904 111.477 93.8624 112.363 94.435L112.145 83.7853Z" fill="#2F5A99"/>
</svg>
