<svg width="124" height="100" viewBox="0 0 124 100" fill="none" xmlns="http://www.w3.org/2000/svg">
<path d="M121.996 99.9997H50.8691C50.8691 99.9997 54.7227 82.0248 56.8699 72.8333C57.1894 71.4695 57.4674 70.302 57.6911 69.4129C59.4357 62.5121 68.2899 59.4209 77.5402 53.3839L94.2005 51.169C94.2005 51.169 107.774 58.9304 113.289 61.8066C116.456 63.4582 118.855 75.7948 120.319 86.0115C121.418 93.5831 121.996 99.9997 121.996 99.9997Z" fill="#515770"/>
<path d="M85.9184 100.001H84.5317C84.0683 91.3347 82.8573 65.7786 84.1482 58.0932L85.0781 55.5872C83.8766 67.6707 85.4072 92.5117 85.9184 100.001Z" fill="#3E455B"/>
<path d="M120.325 85.9989C116.172 83.8726 116.469 73.137 114.063 67.7613C111.452 61.9141 106.03 58.7533 96.022 57.687C86.0144 56.6207 86.3659 54.8393 79.758 57.089C73.1501 59.3386 58.2665 67.7803 56.8701 72.8333C57.1896 71.4696 57.4676 70.302 57.6913 69.4129C59.4359 62.5121 68.2901 59.4209 77.5405 53.3839L94.2007 51.169C94.2007 51.169 107.774 58.9304 113.289 61.8066C116.456 63.4455 118.856 75.7821 120.325 85.9989Z" fill="#3E455B"/>
<path d="M96.3999 53.1146C95.7608 54.0638 94.7032 55.3104 93.9459 56.595C92.5304 58.9997 92.5688 63.5559 90.1723 63.0244C87.7758 62.4928 85.456 57.9619 84.1492 58.1011C82.8423 58.2403 79.2124 63.4579 77.9088 63.4579C76.6051 63.4579 74.7486 57.9935 74.3141 55.9464C74.1824 55.3869 74.2704 54.7988 74.5601 54.3011C75.1001 53.3297 76.2184 52.564 76.7073 51.0579C77.4359 48.8431 77.6659 49.0456 80.0496 48.6501L85.9992 48.435C85.9992 48.435 89.3383 48.1502 90.7187 47.761C92.099 47.3718 95.5116 50.9852 96.6715 51.4535C97.2019 51.6623 96.9623 52.2698 96.3999 53.1146Z" fill="#6879AF"/>
<path d="M96.3987 53.115C94.44 51.5677 91.2862 52.6878 89.4074 54.7571C87.1227 57.2662 85.6114 57.0985 85.6114 57.0985C85.6114 57.0985 88.1676 54.0452 87.2314 52.7511C86.4389 51.6595 79.4828 53.5073 74.5588 54.3046C75.0988 53.3333 76.2172 52.5676 76.7061 51.0615C77.4346 48.8467 77.6647 49.0492 80.0484 48.6536L85.998 48.4385C85.998 48.4385 89.3371 48.1537 90.7174 47.7646C92.0978 47.3754 95.5104 50.9887 96.6703 51.457C97.2007 51.6627 96.961 52.2702 96.3987 53.115Z" fill="#596C9B"/>
<path d="M101.895 22.3385C101.953 22.193 102.01 22.0506 102.065 21.9051C103.848 17.1115 102.474 11.6188 97.6904 11.2676C96.2398 1.13628 82.8426 4.19175 78.077 4.57389C69.2893 5.27861 66.0836 13.7776 65.9414 16.2144C65.7991 18.6512 66.2743 26.9327 69.8914 29.7393L86.5069 40.0192C91.5874 43.3257 92.661 39.3738 93.7634 35.7794C94.8658 32.1851 99.8632 27.2238 101.895 22.3385Z" fill="#333333"/>
<path d="M92.5328 4.7324C85.3082 1.79855 73.1539 5.50231 73.6293 5.76383C85.7153 12.5656 92.2001 14.4943 102.54 15.6816C102.54 15.6816 102.437 14.0709 101.031 12.6665C99.4429 11.0798 97.616 11.3178 97.616 11.3178C97.616 11.3178 98.0801 6.98512 92.5328 4.7324Z" fill="#4D4D4D"/>
<path d="M74.754 31.4199C75.1662 33.3626 74.524 35.1376 73.3225 35.3844C72.1211 35.6312 70.8174 34.2612 70.4052 32.3216C69.993 30.3821 70.6385 28.6071 71.8399 28.3571C73.0413 28.1071 74.345 29.4803 74.754 31.4199Z" fill="#FCA897"/>
<path d="M91.9028 50.7717C91.8517 51.9709 86.5794 60.4062 84.3523 59.7323C82.1252 59.0583 79.5594 53.1669 79.5594 53.1669C79.5594 53.1669 79.5594 53.1163 79.5594 53.015C79.5594 52.5721 79.4955 51.183 79.3038 49.0125C79.2175 47.9779 79.0961 46.7724 78.9331 45.4055L91.2254 35.7773C90.401 38.2263 90.5863 41.6846 90.9666 44.6778C91.1263 45.9244 91.3181 47.0888 91.4874 48.0696C91.6753 48.9622 91.814 49.8642 91.9028 50.7717V50.7717Z" fill="#FCA897"/>
<path d="M90.9666 44.6797C87.2664 49.8497 82.7355 50.7863 79.3038 49.0144C79.2175 47.9798 79.0961 46.7743 78.9331 45.4074L91.2254 35.7792C90.401 38.2282 90.5863 41.6865 90.9666 44.6797Z" fill="#EF9181"/>
<path d="M99.5372 32.6404C98.4764 33.6244 96.9522 34.0927 95.0894 33.4314C95.0894 34.3078 95.0255 40.0347 90.1846 44.1512C87.5496 46.3449 84.2325 47.5739 80.7905 47.6316C78.3589 47.0241 76.5375 45.4927 75.1699 43.5183C70.8212 37.2092 71.0864 26.4072 71.0864 26.4072C71.0525 25.9591 71.074 25.5086 71.1503 25.0656C72.2974 18.4812 86.2928 23.8791 94.265 21.5852C93.8049 22.0883 93.5908 23.183 93.5365 24.4613C93.4151 27.3785 94.1468 31.2545 94.8402 31.2956C95.8435 31.3558 95.1213 28.7264 95.607 27.3849C96.0927 26.0433 99.844 24.0057 100.978 27.0178C101.643 28.7771 101.058 31.2387 99.5372 32.6404Z" fill="#FCC3B4"/>
<path d="M99.3519 28.3826C99.3373 28.2488 99.2853 28.1217 99.2018 28.0156C99.1533 27.9613 99.0938 27.9178 99.0272 27.8878C98.9605 27.8578 98.8883 27.842 98.8151 27.8416C98.6898 27.8458 98.5677 27.8818 98.4604 27.946C98.267 28.0588 98.095 28.2045 97.9524 28.3763C97.6857 28.6784 97.463 29.016 97.291 29.3793C97.0995 29.7451 96.9905 30.1478 96.9715 30.5595C96.9709 30.6767 96.9848 30.7936 97.013 30.9075C97.0476 31.0808 97.1231 31.2434 97.2335 31.3821C97.2907 31.4466 97.3601 31.4993 97.438 31.5372C97.5137 31.5732 97.5968 31.5916 97.6808 31.591C97.778 31.5894 97.8737 31.5679 97.962 31.5277C98.0966 31.4653 98.2189 31.3796 98.3231 31.2745C98.5295 31.0723 98.7118 30.8473 98.8662 30.6038C98.8956 30.5332 98.8982 30.4544 98.8736 30.3821C98.8489 30.3097 98.7987 30.2486 98.7321 30.2101C98.6656 30.1715 98.5872 30.1581 98.5114 30.1723C98.4356 30.1865 98.3676 30.2274 98.3199 30.2874C98.2237 30.431 98.1169 30.5675 98.0003 30.6955C97.9331 30.7754 97.857 30.8476 97.7735 30.9107C97.7472 30.9298 97.7194 30.9467 97.6904 30.9613H97.6712V31.0309L97.7 30.9676H97.6712V31.0372L97.7 30.974L97.6776 31.0246L97.7096 30.9803L97.6872 31.0309L97.7191 30.9866C97.6733 30.9237 97.6427 30.8511 97.6297 30.7746C97.6148 30.7092 97.6073 30.6423 97.6073 30.5753C97.6167 30.3426 97.6676 30.1134 97.7575 29.8982C97.9049 29.5283 98.1097 29.1835 98.3646 28.8762C98.4581 28.7586 98.5654 28.6524 98.6841 28.5598C98.717 28.5327 98.7536 28.5103 98.7928 28.4933H98.8151V28.4364V28.4933V28.4364V28.3668L98.764 28.4839H98.8151V28.3573L98.764 28.4744L98.8119 28.3668L98.7065 28.4269C98.7224 28.4462 98.742 28.4623 98.764 28.4744L98.8119 28.3668L98.7065 28.4269C98.7087 28.4437 98.7087 28.4607 98.7065 28.4775C98.7121 28.5191 98.726 28.5591 98.7473 28.5954C98.7686 28.6316 98.7969 28.6633 98.8306 28.6887C98.8642 28.7142 98.9026 28.7328 98.9436 28.7435C98.9845 28.7542 99.0272 28.7568 99.0691 28.7512C99.1111 28.7456 99.1515 28.7319 99.1881 28.7108C99.2247 28.6897 99.2568 28.6617 99.2825 28.6283C99.3081 28.595 99.3269 28.557 99.3377 28.5164C99.3485 28.4759 99.3512 28.4336 99.3455 28.3921L99.3519 28.3826Z" fill="#E56E61"/>
<path d="M81.2249 31.4106C81.3084 31.4751 81.3716 31.5618 81.407 31.6606C81.4576 31.8093 81.4814 31.9656 81.4773 32.1225C81.4543 32.6597 81.3364 33.1887 81.129 33.6856C80.9165 34.1316 80.6596 34.5556 80.3621 34.9512C80.219 35.1539 80.0888 35.3652 79.9723 35.584C79.8575 35.7766 79.7907 35.9935 79.7774 36.2168C79.7764 36.3136 79.796 36.4096 79.8349 36.4984C79.8766 36.5929 79.9388 36.6772 80.017 36.7452C80.3475 37.0054 80.7367 37.1824 81.1514 37.2609C81.3616 37.3094 81.5752 37.3422 81.7904 37.359C81.8752 37.3636 81.9583 37.3347 82.0215 37.2786C82.0847 37.2226 82.1229 37.1439 82.1275 37.06C82.1322 36.9761 82.103 36.8938 82.0464 36.8312C81.9897 36.7686 81.9103 36.7308 81.8256 36.7262V36.7262C81.6296 36.7091 81.4352 36.6774 81.244 36.6313C80.9538 36.5718 80.6808 36.4486 80.4452 36.2706L80.4292 36.2484V36.2168C80.4432 36.0963 80.4847 35.9805 80.5507 35.8782C80.6753 35.6378 80.8989 35.3277 81.1226 34.9955C81.3653 34.6596 81.571 34.299 81.7361 33.9197C81.9778 33.3503 82.1152 32.7428 82.1419 32.1257C82.1461 31.8931 82.1082 31.6616 82.0301 31.4423C81.9525 31.2258 81.8111 31.0373 81.6243 30.9012C81.5555 30.8561 81.4718 30.8391 81.3906 30.8538C81.3095 30.8685 81.2372 30.9136 81.1889 30.9798C81.1406 31.046 81.1201 31.1282 81.1315 31.209C81.143 31.2899 81.1856 31.3633 81.2504 31.4138L81.2249 31.4106Z" fill="#E56E61"/>
<path d="M89.6057 31.0418C89.6057 31.8487 89.1711 32.5036 88.6471 32.5036C88.123 32.5036 87.6885 31.8487 87.6885 31.0418C87.6885 30.235 88.123 29.5832 88.6471 29.5832C89.1711 29.5832 89.6057 30.235 89.6057 31.0418Z" fill="#3F3B51"/>
<path d="M76.1955 32.5297C76.732 32.5297 77.1669 31.8766 77.1669 31.071C77.1669 30.2654 76.732 29.6124 76.1955 29.6124C75.659 29.6124 75.2241 30.2654 75.2241 31.071C75.2241 31.8766 75.659 32.5297 76.1955 32.5297Z" fill="#3F3B51"/>
<path d="M87.0401 27.6384L86.9187 27.5244L87.0401 27.6415L86.9187 27.5276L87.0401 27.6447C87.0668 27.6171 87.0956 27.5917 87.1263 27.5687C87.4956 27.2981 87.9452 27.1568 88.4045 27.1669C89.0345 27.1868 89.6482 27.3701 90.1842 27.6985C90.2576 27.7397 90.3445 27.7506 90.4259 27.7286C90.5073 27.7067 90.5766 27.6538 90.6188 27.5814C90.6602 27.5084 90.6706 27.4221 90.6479 27.3414C90.6251 27.2607 90.571 27.1923 90.4974 27.1511C89.8679 26.7619 89.1461 26.5437 88.4045 26.5183C87.9374 26.5107 87.4759 26.6195 87.0624 26.8347C86.8835 26.9255 86.7198 27.0428 86.5768 27.1827C86.5444 27.2121 86.5185 27.2478 86.5007 27.2875C86.4829 27.3272 86.4735 27.3701 86.4732 27.4136C86.4728 27.457 86.4815 27.5001 86.4988 27.5401C86.516 27.5801 86.5413 27.6161 86.5732 27.646C86.6051 27.6758 86.6429 27.6988 86.6842 27.7136C86.7255 27.7283 86.7694 27.7345 86.8132 27.7317C86.857 27.7289 86.8997 27.7172 86.9388 27.6974C86.9778 27.6775 87.0123 27.6499 87.0401 27.6162V27.6384Z" fill="#3F3B51"/>
<path d="M74.5848 28.077C74.7589 27.9217 74.9496 27.7859 75.1536 27.672C75.5379 27.4345 75.979 27.3024 76.4317 27.2891C76.9486 27.2977 77.4466 27.4833 77.8409 27.8144C77.874 27.8401 77.912 27.8592 77.9526 27.8704C77.9931 27.8816 78.0356 27.8849 78.0774 27.8799C78.1192 27.8749 78.1597 27.8618 78.1964 27.8413C78.2331 27.8208 78.2654 27.7934 78.2914 27.7606C78.3174 27.7277 78.3367 27.6902 78.348 27.65C78.3594 27.6098 78.3626 27.5678 78.3576 27.5264C78.3525 27.4849 78.3393 27.4449 78.3186 27.4085C78.2979 27.3722 78.2702 27.3402 78.2371 27.3144C77.7278 26.8992 77.0914 26.6672 76.4317 26.6563C75.8466 26.6692 75.2762 26.8411 74.783 27.1531C74.5515 27.2939 74.3371 27.4606 74.1439 27.6498C74.1147 27.6797 74.0918 27.7151 74.0764 27.7537C74.061 27.7924 74.0535 27.8338 74.0542 27.8753C74.055 27.9169 74.064 27.9579 74.0807 27.996C74.0975 28.0342 74.1217 28.0687 74.1519 28.0975C74.1821 28.1264 74.2178 28.1491 74.2568 28.1644C74.2959 28.1796 74.3376 28.187 74.3796 28.1863C74.4216 28.1856 74.463 28.1767 74.5015 28.1601C74.54 28.1435 74.5749 28.1196 74.604 28.0896L74.5848 28.077Z" fill="#3F3B51"/>
<path d="M78.9129 42.4175C79.486 43.0162 80.2411 43.406 81.0594 43.5255C81.5974 43.6064 82.1476 43.5302 82.6443 43.3057C83.1609 43.0622 83.5814 42.6513 83.8384 42.139C83.8573 42.1076 83.8696 42.0727 83.8746 42.0363C83.8795 42 83.877 41.9631 83.8672 41.9278C83.8574 41.8925 83.8405 41.8596 83.8175 41.8312C83.7946 41.8028 83.766 41.7794 83.7337 41.7625C83.7014 41.7456 83.666 41.7356 83.6296 41.733C83.5933 41.7305 83.5568 41.7355 83.5224 41.7476C83.488 41.7598 83.4565 41.779 83.4297 41.8039C83.4029 41.8289 83.3815 41.859 83.3668 41.8926C83.1669 42.2986 82.8376 42.6258 82.4315 42.8217C82.0273 43.0025 81.5802 43.0629 81.1433 42.9958C80.4419 42.8863 79.796 42.5481 79.3049 42.0332C79.2811 42.0056 79.2519 41.9832 79.2191 41.9673C79.1864 41.9515 79.1507 41.9426 79.1144 41.9412C79.078 41.9397 79.0417 41.9458 79.0078 41.959C78.9738 41.9722 78.9429 41.9922 78.9169 42.0179C78.8909 42.0436 78.8704 42.0743 78.8567 42.1082C78.8429 42.1421 78.8362 42.1785 78.837 42.215C78.8377 42.2516 78.8459 42.2876 78.861 42.3209C78.8762 42.3541 78.8979 42.3839 78.9249 42.4084L78.9129 42.4175Z" fill="#F4586F"/>
<path d="M91.9032 50.7707C91.8521 51.9699 86.5799 60.4053 84.3527 59.7313C82.1256 59.0574 79.5598 53.1659 79.5598 53.1659C79.5598 53.1659 79.5598 53.1153 79.5598 53.014C80.758 55.4029 82.1576 57.1906 84.8001 57.3361C87.727 57.4943 90.7721 52.2199 91.4878 48.0686C91.6757 48.9612 91.8144 49.8632 91.9032 50.7707V50.7707Z" fill="#EF9181"/>
<path d="M65.7785 99.9997H64.2129L65.5772 80.8889C65.5772 80.8889 62.0944 69.2927 65.5772 74.0862C68.8428 78.5728 66.8458 90.6183 65.7785 99.9997Z" fill="#3E455B"/>
<path d="M111.193 99.9986H106.4C105.873 91.8923 104.224 78.3059 104.365 76.3853C104.509 74.3698 106.467 70.4907 107.56 71.0634C108.653 71.6361 106.03 74.3698 105.963 76.8156C105.902 78.6002 109.343 92.5947 111.193 99.9986Z" fill="#3E455B"/>
<path d="M91.3376 33.3687C90.6812 33.9311 89.8607 34.2714 88.9954 34.3401H88.7079H88.5097C88.4888 34.3391 88.4678 34.3421 88.448 34.3491C88.4282 34.3561 88.41 34.3669 88.3944 34.3808C88.3789 34.3948 88.3662 34.4116 88.3572 34.4304C88.3482 34.4492 88.343 34.4696 88.342 34.4904C88.3409 34.5112 88.344 34.5319 88.3511 34.5515C88.3582 34.5711 88.3691 34.5891 88.3831 34.6046C88.3972 34.62 88.4143 34.6325 88.4332 34.6414C88.4522 34.6503 88.4728 34.6555 88.4938 34.6565C88.5641 34.6565 88.6344 34.6565 88.7079 34.6565H89.0274C89.9596 34.5835 90.844 34.2177 91.5517 33.6124C91.5838 33.5848 91.6039 33.5459 91.6074 33.5039C91.611 33.4619 91.5979 33.4202 91.5708 33.3877C91.5576 33.3717 91.5412 33.3584 91.5227 33.3488C91.5042 33.3391 91.4839 33.3332 91.463 33.3314C91.4422 33.3297 91.4212 33.3321 91.4013 33.3385C91.3814 33.3449 91.363 33.3552 91.3472 33.3687H91.3376Z" fill="#EF9A9A"/>
<path d="M76.4701 34.8405C76.2745 34.9067 76.0696 34.9419 75.8629 34.9449C75.5142 34.9445 75.176 34.8262 74.9043 34.6095C74.8132 34.5404 74.7277 34.4642 74.6487 34.3817C74.6347 34.3649 74.6174 34.3512 74.5978 34.3413C74.5782 34.3315 74.5568 34.3257 74.5348 34.3245C74.5129 34.3232 74.4909 34.3264 74.4703 34.3339C74.4497 34.3415 74.4308 34.3531 74.4149 34.3682C74.3991 34.3832 74.3865 34.4014 74.3781 34.4215C74.3696 34.4415 74.3654 34.4631 74.3657 34.4849C74.3661 34.5067 74.371 34.5281 74.3801 34.5479C74.3892 34.5677 74.4023 34.5855 74.4187 34.6C74.5078 34.6957 74.6051 34.7835 74.7094 34.8626C75.038 35.1197 75.4442 35.2601 75.8629 35.2613C76.1047 35.2598 76.3445 35.2181 76.5723 35.1379C76.6076 35.1212 76.6354 35.0922 76.6506 35.0566C76.6657 35.0209 76.6671 34.9809 76.6545 34.9443C76.6419 34.9076 76.6162 34.8768 76.5822 34.8577C76.5482 34.8386 76.5083 34.8324 76.4701 34.8405V34.8405Z" fill="#EF9A9A"/>
<path d="M49.2889 66.224L48.9758 71.6124L47.3206 99.9433H22.375L14.8533 76.1243L15.2751 64.275L33.4659 52.6977L42.8696 58.3993L49.2889 66.224Z" fill="#893D4B"/>
<path d="M31.542 67.8C30.9605 72.043 32.9863 71.6506 32.0725 79.2348C31.4046 84.7941 32.0725 94.321 34.1909 99.9435H26.1516C25.0109 99.4594 24.2664 99.1367 24.2664 99.1367L21.25 74.9919C21.25 74.9919 25.1067 61.0859 25.6116 60.8359C26.1164 60.5859 29.2318 55.7734 29.2318 55.7734L37.0891 59.2254C32.8425 62.187 32.1268 63.557 31.542 67.8Z" fill="#7A3141"/>
<path d="M61.0967 99.9433H41.6725C40.4551 83.003 44.4396 83.4903 44.7112 74.7132C44.871 69.5432 43.5769 66.7177 42.27 63.9555C41.3594 62.057 40.4455 60.1586 40.0142 57.5609L40.928 54.7955C44.4013 55.055 47.194 55.7827 49.4371 56.8522C60.496 62.1203 58.2018 75.615 58.1443 81.5317C58.074 88.6287 61.0967 99.9433 61.0967 99.9433Z" fill="#F76F83"/>
<path d="M58.204 99.9439H51.8453C51.6792 98.1974 51.2382 93.4038 51.2606 91.227C51.2861 88.5375 51.8996 79.3745 51.8996 79.3745C51.8996 79.3745 55.1173 94.796 58.204 99.9439Z" fill="#E5617A"/>
<path d="M49.4371 56.8649C46.0021 57.3173 43.4683 60.0732 42.27 63.9682C41.3594 62.0697 40.4455 60.1713 40.0142 57.5736L40.928 54.8083C44.4013 55.0677 47.194 55.7954 49.4371 56.8649Z" fill="#E5617A"/>
<path d="M54.2424 45.1136C52.2549 49.4483 48.3471 53.6565 44.1101 55.6214C37.1156 58.8551 19.222 57.966 12.1348 53.5205C7.7445 50.7741 6.50472 46.6988 7.02236 42.7627C7.37365 40.334 8.28077 38.017 9.67445 35.9885C13.1893 30.8153 10.4094 28.6352 13.0231 22.5761C13.6008 21.206 14.0708 19.7938 14.429 18.3521C15.4835 14.3053 15.9276 10.8596 20.5352 6.90771C26.651 1.65539 38.4832 7.39181 38.4832 11.1887C39.3414 10.84 40.2642 10.6745 41.1914 10.7028C42.1185 10.7312 43.0292 10.9528 43.8641 11.3532C45.3051 12.0683 47.7623 17.387 50.0757 23.1646C52.2134 28.4992 54.2296 34.2071 55.2074 37.0421C56.0158 39.3803 55.5461 42.2691 54.2424 45.1136Z" fill="#593535"/>
<path d="M28.5359 99.9431H4.25172C4.08237 90.0491 5.59055 78.377 7.81127 69.7486C8.03814 68.8627 8.27459 68.0116 8.51424 67.1952C10.1438 61.6993 13.7897 57.9277 18.065 55.4471C18.704 55.0674 19.3814 54.7226 20.0588 54.403C21.5243 53.7138 23.0439 53.1435 24.6025 52.6976V52.6976C25.0946 52.5552 25.5899 52.4255 26.082 52.3052L27.5358 55.6655L27.8042 56.2983L28.226 57.2696L28.52 57.9499C28.52 57.9499 28.4497 59.0953 28.4081 60.7691C28.3698 62.1011 28.3474 63.7686 28.3826 65.4582C28.3862 67.4432 28.5572 69.4244 28.8938 71.3813C29.8077 75.7666 28.4688 78.5478 28.0822 84.6703C27.6956 90.7927 28.5359 99.9431 28.5359 99.9431Z" fill="#F76F83"/>
<path d="M7.29404 99.9431H4.2649C4.09555 90.0492 5.60373 78.377 7.82446 69.7487C8.08286 69.4628 8.40431 69.2398 8.76387 69.0969C11.4831 68.2331 6.07663 90.201 7.29404 99.9431Z" fill="#E5617A"/>
<path d="M23.5036 99.943H18.126L17.8735 91.4128L18.8193 80.1329L23.5036 99.943Z" fill="#E5617A"/>
<path d="M28.3989 65.4549C26.5201 61.2151 22.232 56.0672 18.0781 55.4534C20.5841 54.027 23.2856 52.9676 26.0983 52.3083L28.5363 57.9466C28.5363 57.9466 28.3158 61.6359 28.3989 65.4549Z" fill="#E5617A"/>
<path d="M28.0954 47.853C24.6701 50.1153 22.7145 51.5549 22.82 53.1876C22.9254 54.8202 26.846 62.126 30.0541 62.5025C33.2622 62.879 34.2975 59.7023 35.9271 59.3385C37.5567 58.9746 42.1291 60.8477 42.5094 59.5536C42.8896 58.2595 44.9314 49.5901 36.9751 48.1916L28.0954 47.853Z" fill="#EF506F"/>
<path d="M39.851 43.0808C39.5087 44.7176 39.348 46.3865 39.3717 48.0579C39.3779 49.6944 39.4846 51.329 39.6913 52.9526C39.6913 52.9526 39.7232 53.2026 39.7296 53.6139C39.7839 55.4333 39.5283 60.4261 35.2147 60.9988C29.9265 61.7012 27.2839 52.3325 27.2839 52.3325C27.2839 52.3325 27.2839 52.1521 27.2839 51.8326C27.2839 51.0732 27.2584 49.5481 27.1881 47.8617C27.105 45.7006 26.942 43.2707 26.6289 41.869L38.8158 42.2487L40.0747 42.2898C39.9916 42.5429 39.9117 42.8119 39.851 43.0808Z" fill="#FCA897"/>
<path d="M39.8506 43.0808C39.5083 44.7176 39.3476 46.3865 39.3713 48.0578C36.6042 52.4337 31.6196 51.0099 27.1717 47.8617C27.0886 45.7006 26.9257 43.2707 26.6125 41.869L38.7994 42.2487C39.1888 42.4739 39.543 42.7543 39.8506 43.0808V43.0808Z" fill="#E08282"/>
<path d="M44.2342 32.3202C45.7584 30.9754 46.9534 31.0292 47.1707 33.4529C47.388 35.8766 45.3238 40.0752 43.5281 38.7843L44.2342 32.3202Z" fill="#FCA897"/>
<ellipse cx="43.9369" cy="38.8942" rx="1.35214" ry="1.34813" fill="white"/>
<path d="M44.7843 33.2385C43.4615 40.4557 39.8348 49.2549 33.85 48.4924C31.4643 48.1649 29.2151 47.1952 27.3476 45.6891C25.4197 44.156 23.8216 42.256 22.6473 40.1013C22.6473 40.1013 18.813 41.4018 17.5349 38.5003C16.2568 35.5989 17.7521 33.036 19.9889 33.7068C21.267 34.463 20.9155 36.2064 22.037 36.7981C22.7048 37.1556 22.4684 35.3743 22.593 33.5802C22.6665 32.4918 22.8774 31.3939 23.5037 30.7706L23.7497 30.5681C25.1908 29.9353 26.6638 29.3024 27.4179 28.1033C29.0667 25.455 30.7889 26.4611 33.7318 25.8473C36.6747 25.2335 38.5759 21.2531 38.5759 21.2531C38.5759 21.2531 39.6718 26.1985 45.3626 28.2583C45.3626 28.4323 45.3627 28.6095 45.3403 28.7899C45.25 30.2829 45.0643 31.7688 44.7843 33.2385V33.2385Z" fill="#FCC3B4"/>
<path d="M28.447 35.6023C28.9834 35.6023 29.4183 35.0116 29.4183 34.2829C29.4183 33.5542 28.9834 32.9635 28.447 32.9635C27.9105 32.9635 27.4756 33.5542 27.4756 34.2829C27.4756 35.0116 27.9105 35.6023 28.447 35.6023Z" fill="#593535"/>
<path d="M39.0258 35.4511C39.5623 35.4511 39.9972 34.8604 39.9972 34.1317C39.9972 33.403 39.5623 32.8123 39.0258 32.8123C38.4893 32.8123 38.0544 33.403 38.0544 34.1317C38.0544 34.8604 38.4893 35.4511 39.0258 35.4511Z" fill="#593535"/>
<ellipse cx="20.5118" cy="40.5206" rx="1.35214" ry="1.34813" fill="white"/>
<path d="M19.7868 41.7058C18.945 41.2253 19.2308 40.1983 19.2308 40.1983C19.8712 41.313 20.4304 41.4898 21.6136 41.3884C21.6136 41.3884 20.8988 42.3405 19.7868 41.7058Z" fill="#E1E1E1"/>
<path d="M34.0483 35.7953C34.0314 35.8999 34.0229 36.0057 34.0227 36.1117C34.0254 36.4308 34.1031 36.745 34.2496 37.0293C34.4538 37.398 34.6946 37.7457 34.9685 38.0671C35.1807 38.2991 35.3408 38.573 35.4382 38.8707C35.4491 38.9131 35.4544 38.9567 35.4542 39.0005C35.4546 39.1043 35.4184 39.205 35.3519 39.2852C35.2334 39.425 35.082 39.5336 34.911 39.6016C34.8431 39.6294 34.7737 39.6537 34.7033 39.6744H34.6426L34.6618 39.7757L34.6426 39.6744L34.6618 39.7757L34.6426 39.6744C34.5578 39.6912 34.4833 39.7406 34.4354 39.8118C34.3874 39.883 34.37 39.9702 34.387 40.0541C34.4039 40.138 34.4538 40.2118 34.5257 40.2593C34.5977 40.3068 34.6857 40.324 34.7704 40.3072C34.9943 40.2605 35.2098 40.1805 35.4095 40.0699C35.5902 39.9731 35.7498 39.842 35.8792 39.6839C36.0327 39.4922 36.116 39.2546 36.1156 39.01C36.1153 38.9217 36.1057 38.8336 36.0869 38.7473C36.0182 38.4822 35.9001 38.2322 35.7386 38.0101C35.5085 37.6937 35.2337 37.3773 35.026 37.0609C34.8179 36.7859 34.6987 36.455 34.6841 36.1117C34.6843 36.0427 34.6907 35.9739 34.7033 35.906C34.7098 35.8645 34.708 35.8221 34.6979 35.7812C34.6879 35.7404 34.6698 35.7019 34.6447 35.6679C34.6197 35.634 34.5881 35.6053 34.5518 35.5834C34.5155 35.5616 34.4753 35.547 34.4333 35.5406C34.3913 35.5341 34.3485 35.5359 34.3073 35.5459C34.266 35.5558 34.2271 35.5737 34.1928 35.5986C34.1586 35.6234 34.1296 35.6547 34.1075 35.6906C34.0854 35.7265 34.0707 35.7664 34.0642 35.8079L34.0483 35.7953Z" fill="#DB7979"/>
<path d="M26.2904 30.9629H26.2712H26.2904H26.2712H26.2904C26.4469 30.7642 26.6321 30.5893 26.84 30.444C27.2598 30.1358 27.768 29.9685 28.2906 29.9662C28.6383 29.9692 28.9826 30.0346 29.3067 30.1592C29.3465 30.1766 29.3895 30.1858 29.433 30.1861C29.4765 30.1865 29.5196 30.1781 29.5597 30.1613C29.5998 30.1446 29.636 30.12 29.6662 30.0889C29.6963 30.0578 29.7197 30.021 29.735 29.9807C29.7502 29.9403 29.757 29.8973 29.7549 29.8543C29.7527 29.8113 29.7418 29.7691 29.7226 29.7304C29.7035 29.6918 29.6765 29.6574 29.6435 29.6294C29.6104 29.6013 29.572 29.5803 29.5304 29.5675C29.1348 29.4161 28.7148 29.3367 28.2906 29.3334C27.6159 29.3389 26.9611 29.5609 26.4246 29.9662C26.183 30.1468 25.9679 30.3598 25.7855 30.599C25.7612 30.6329 25.7438 30.6712 25.7344 30.7117C25.725 30.7522 25.7238 30.7941 25.7308 30.8351C25.7377 30.8761 25.7528 30.9153 25.7751 30.9506C25.7974 30.9858 25.8264 31.0163 25.8606 31.0404C25.8948 31.0645 25.9335 31.0817 25.9744 31.091C26.0153 31.1003 26.0576 31.1016 26.099 31.0947C26.1404 31.0878 26.18 31.0728 26.2156 31.0508C26.2512 31.0287 26.282 30.9999 26.3064 30.9661L26.2904 30.9629Z" fill="#593535"/>
<path d="M41.4735 30.556C41.2864 30.3484 41.0714 30.1675 40.8344 30.0181C40.321 29.677 39.7176 29.4933 39.0994 29.4897C38.5916 29.4949 38.0916 29.6127 37.6359 29.8346C37.5657 29.8741 37.5132 29.9385 37.489 30.0149C37.4648 30.0912 37.4708 30.1738 37.5056 30.246C37.5404 30.3182 37.6016 30.3746 37.6767 30.4039C37.7519 30.4333 37.8355 30.4333 37.9107 30.4041C38.2808 30.2239 38.6869 30.1277 39.0994 30.1225C39.5925 30.1266 40.0736 30.274 40.4829 30.5465C40.6174 30.6329 40.7436 30.7314 40.86 30.8407C40.8935 30.8707 40.9255 30.9024 40.9558 30.9356L40.9782 30.9578L41.0069 30.9325L40.9782 30.9578L41.0069 30.9325L40.9782 30.9578C41.0329 31.022 41.111 31.062 41.1955 31.0692C41.28 31.0763 41.3639 31.0499 41.4287 30.9958C41.4936 30.9416 41.534 30.8642 41.5412 30.7806C41.5484 30.6969 41.5217 30.6138 41.4671 30.5496L41.4735 30.556Z" fill="#593535"/>
<path d="M30.8876 43.3726C31.1163 43.559 31.3662 43.7182 31.6321 43.8472C32.2074 44.1455 32.8457 44.3049 33.495 44.3124C34.4087 44.2956 35.287 43.9593 35.9745 43.3631C36.0071 43.3368 36.0341 43.3044 36.054 43.2676C36.0739 43.2309 36.0863 43.1907 36.0904 43.1493C36.0946 43.1078 36.0904 43.066 36.0782 43.0261C36.066 42.9863 36.046 42.9492 36.0192 42.917C35.9656 42.8528 35.8885 42.8121 35.8048 42.8038C35.721 42.7955 35.6373 42.8203 35.5719 42.8727C34.9959 43.3714 34.26 43.6517 33.495 43.6637C32.946 43.6544 32.4068 43.519 31.9197 43.2682C31.7608 43.1859 31.6071 43.0939 31.4596 42.9929C31.4052 42.955 31.3637 42.9265 31.3381 42.9043L31.3094 42.8822C31.2785 42.8508 31.2413 42.8261 31.2002 42.8098C31.1591 42.7934 31.115 42.7856 31.0708 42.787C31.0265 42.7884 30.983 42.7988 30.943 42.8177C30.9031 42.8366 30.8675 42.8636 30.8386 42.8968C30.8097 42.93 30.7881 42.9689 30.7752 43.0108C30.7622 43.0527 30.7582 43.0969 30.7634 43.1405C30.7687 43.184 30.783 43.226 30.8054 43.2638C30.8279 43.3016 30.8581 43.3343 30.894 43.36L30.8876 43.3726Z" fill="#F95D5D"/>
<path d="M19.1958 36.1112C19.2142 36.0428 19.2433 35.9777 19.2821 35.9182V35.9182L19.2565 35.8961L19.2789 35.9214L19.2533 35.8992L19.2757 35.9245L19.1766 35.8011V35.9562C19.2122 35.9564 19.247 35.9453 19.2757 35.9245L19.1766 35.8011L19.0936 35.9245C19.1189 35.9388 19.1475 35.9464 19.1766 35.9467V35.8011L19.0936 35.9245C19.1261 35.9651 19.1529 36.0098 19.1734 36.0574C19.318 36.4264 19.3885 36.8198 19.3811 37.2155C19.3816 37.3487 19.3741 37.4818 19.3588 37.6141C19.3523 37.7396 19.3231 37.8629 19.2725 37.978V37.978L19.3492 38.0413L19.3045 37.9527L19.2725 37.978L19.3492 38.0413L19.3045 37.9527L19.3747 38.0888V37.9369L19.3045 37.9527L19.3747 38.0888V38.054L19.4035 37.94H19.3747V38.0571L19.4035 37.9432V37.9843L19.4195 37.9464V37.9875L19.4355 37.9495C19.409 37.9319 19.3844 37.9118 19.362 37.8894C19.2985 37.8237 19.2408 37.7528 19.1894 37.6774L19.1351 37.5888L19.1191 37.5667C19.0981 37.5305 19.0702 37.4988 19.0368 37.4734C19.0035 37.4479 18.9654 37.4293 18.9247 37.4184C18.8841 37.4075 18.8417 37.4047 18.7999 37.41C18.7582 37.4154 18.7179 37.4288 18.6814 37.4496C18.6449 37.4704 18.6128 37.4981 18.5872 37.5311C18.5615 37.5641 18.5426 37.6019 18.5316 37.6421C18.5206 37.6824 18.5178 37.7244 18.5232 37.7657C18.5286 37.8071 18.5422 37.8469 18.5631 37.8831C18.6255 37.9943 18.6971 38.1001 18.7772 38.1995C18.8449 38.2878 18.9232 38.3675 19.0105 38.4368C19.0603 38.4781 19.115 38.5131 19.1734 38.5412C19.2456 38.5742 19.324 38.5914 19.4035 38.5918C19.5041 38.5911 19.6021 38.5602 19.6847 38.5032C19.7975 38.4199 19.8813 38.3037 19.9243 38.171C19.9796 38.019 20.015 37.8605 20.0298 37.6996C20.0458 37.5382 20.0553 37.3832 20.0553 37.2281C20.0591 36.8183 19.9976 36.4104 19.8732 36.0195C19.8256 35.8652 19.7545 35.719 19.6623 35.586C19.6147 35.5209 19.5564 35.4642 19.4898 35.4183C19.4096 35.359 19.3118 35.3278 19.2118 35.3297C19.1271 35.3284 19.0439 35.3515 18.9721 35.3961C18.88 35.453 18.8032 35.5311 18.7485 35.624C18.6918 35.7241 18.6468 35.8302 18.6143 35.9404C18.6015 35.98 18.5967 36.0218 18.6002 36.0633C18.6037 36.1049 18.6155 36.1453 18.6347 36.1823C18.6737 36.2571 18.741 36.3134 18.822 36.339C18.9029 36.3646 18.9908 36.3573 19.0663 36.3188C19.1418 36.2802 19.1987 36.2135 19.2246 36.1334L19.1958 36.1112Z" fill="#DB7979"/>
<path d="M35.1988 61.0006C29.9106 61.703 27.2681 52.3343 27.2681 52.3343C27.2681 52.3343 27.2681 52.1539 27.2681 51.8344C29.6645 57.9062 36.3203 63.6236 39.7297 53.6157C39.7712 55.435 39.5156 60.4279 35.1988 61.0006Z" fill="#E08282"/>
<path d="M50.0789 23.1653C49.6699 24.4752 47.8422 23.5672 46.5641 19.726C45.0016 15.0401 42.9055 12.4044 40.5697 12.9391C38.234 13.4739 37.6301 14.8787 36.9942 11.7558C36.3584 8.63286 33.2238 7.44634 28.0059 6.6933C22.788 5.94026 20.8228 8.41454 18.813 12.0722C16.9885 15.3881 15.7903 19.2799 14.4482 18.3465C15.5027 14.2997 15.9468 10.854 20.5544 6.90213C26.6702 1.64981 38.5024 7.38623 38.5024 11.1831C39.3606 10.8344 40.2834 10.6689 41.2105 10.6972C42.1377 10.7256 43.0484 10.9472 43.8833 11.3476C45.3084 12.069 47.7655 17.3878 50.0789 23.1653Z" fill="#704646"/>
<path d="M42.1196 36.0136C41.8528 36.2865 41.5336 36.5037 41.1808 36.6526C40.8279 36.8015 40.4486 36.879 40.065 36.8805H40.0267C39.8748 36.8774 39.7232 36.8648 39.573 36.8426C39.552 36.8394 39.5306 36.8405 39.51 36.8455C39.4894 36.8506 39.47 36.8596 39.453 36.8721C39.4359 36.8846 39.4215 36.9003 39.4106 36.9183C39.3996 36.9363 39.3924 36.9563 39.3892 36.977C39.3861 36.9978 39.3871 37.019 39.3922 37.0394C39.3973 37.0598 39.4065 37.079 39.4191 37.0959C39.4317 37.1127 39.4475 37.127 39.4657 37.1378C39.4839 37.1487 39.5041 37.1558 39.525 37.159C39.69 37.1839 39.8566 37.1977 40.0235 37.2001H40.065C40.4894 37.1996 40.9094 37.1154 41.3006 36.9525C41.6918 36.7895 42.0462 36.551 42.3433 36.2509C42.3583 36.2362 42.3702 36.2187 42.3783 36.1994C42.3864 36.1801 42.3905 36.1594 42.3905 36.1386C42.3905 36.1177 42.3864 36.097 42.3783 36.0777C42.3702 36.0584 42.3583 36.0409 42.3433 36.0262C42.3287 36.0115 42.3113 35.9998 42.2921 35.9918C42.2729 35.9838 42.2523 35.9797 42.2315 35.9797C42.2106 35.9797 42.19 35.9838 42.1708 35.9918C42.1516 35.9998 42.1342 36.0115 42.1196 36.0262V36.0136Z" fill="#EF9A9A"/>
<path d="M27.2743 37.5192C27.0788 37.5854 26.8739 37.6206 26.6672 37.6236C26.3207 37.6291 25.9825 37.5175 25.7086 37.3072C25.6167 37.2378 25.5312 37.1605 25.453 37.0762C25.4382 37.0614 25.4205 37.0496 25.401 37.0416C25.3816 37.0335 25.3607 37.0294 25.3396 37.0294C25.3185 37.0294 25.2976 37.0335 25.2781 37.0416C25.2587 37.0496 25.241 37.0614 25.2261 37.0762C25.2109 37.0904 25.1987 37.1075 25.1904 37.1266C25.182 37.1456 25.1777 37.1662 25.1777 37.1869C25.1777 37.2077 25.182 37.2282 25.1904 37.2473C25.1987 37.2663 25.2109 37.2835 25.2261 37.2977C25.3153 37.3933 25.4126 37.4812 25.5169 37.5603C25.8455 37.8174 26.2517 37.9578 26.6704 37.959C26.9122 37.9572 27.1519 37.9155 27.3798 37.8356C27.415 37.8188 27.4429 37.7899 27.458 37.7542C27.4732 37.7185 27.4746 37.6786 27.462 37.6419C27.4494 37.6052 27.4237 37.5744 27.3897 37.5553C27.3557 37.5362 27.3158 37.5301 27.2775 37.5381L27.2743 37.5192Z" fill="#EF9A9A"/>
<path d="M95.0743 36.5487V33.613C95.0743 33.613 94.715 33.3099 94.5183 33.9304C94.2074 38.1848 88.7751 39.5048 86.0991 40.9918C85.3421 41.4125 87.3981 43.1001 86.5756 43.3721C83.6369 47.4185 78.3947 45.5937 77.2828 44.3242C76.4743 43.4013 79.1149 41.6347 78.2359 40.9918C78.442 40.6745 76.3296 41.2299 74.5028 39.7224C72.2629 37.874 71.7948 34.3048 71.4846 32.5023C71.617 38.1355 74.3281 49.2593 82.8426 47.7359C91.3571 46.2126 94.5448 39.643 95.0743 36.5487Z" fill="#DB9988"/>
<path fill-rule="evenodd" clip-rule="evenodd" d="M84.5937 41.7711C83.6759 41.1641 82.3759 40.822 81.2496 40.9332C80.1655 41.0403 79.0633 41.5332 78.3534 42.1949C77.6453 42.8549 77.4444 43.542 77.7234 44.1713C77.9823 44.7552 78.47 44.4765 79.1899 44.6789C79.931 44.8873 80.8544 44.9114 81.8462 44.8498C82.8184 44.7896 83.6906 44.6597 84.367 44.377C85.0203 44.104 85.4437 44.3461 85.6363 43.7536C85.8484 43.1011 85.5286 42.3895 84.5937 41.7711ZM85.383 40.5803C86.5477 41.3507 87.5006 42.6427 86.9961 44.1947C86.6417 45.2848 85.8451 45.9421 84.9187 46.3292C84.0155 46.7067 82.9483 46.8471 81.9348 46.91C80.8972 46.9743 79.7796 46.9632 78.8024 46.6884C77.804 46.4076 76.8961 45.8322 76.4162 44.7496C75.7968 43.3527 76.4214 42.0423 77.3781 41.1507C78.3329 40.2607 79.7347 39.6478 81.1089 39.512C82.5744 39.3673 84.2011 39.7987 85.383 40.5803Z" fill="#DB9988"/>
</svg>
